<svg xmlns="http://www.w3.org/2000/svg" width="800" height="800" fill="none" viewBox="0 0 24 24"><path fill="#001A72" d="M21.75 12a.75.75 0 0 0-1.5 0zm-9-6a.75.75 0 0 0-1.5 0zm-1.5 2a.75.75 0 0 0 1.5 0zm1.5 8a.75.75 0 0 0-1.5 0zm-1.5 2a.75.75 0 0 0 1.5 0zM15 8.75a.75.75 0 0 0 0-1.5zM11 8v-.75zm2 8v-.75zm-4-.75a.75.75 0 0 0 0 1.5zM13 12v-.75zm-2 0v-.75zm-.765-3.848-.287-.693zM9.152 9.235l-.693-.287zm0 1.53-.693.287zm.434.65.53-.531zm.649.433-.287.693zm3.53 4 .287.693zm1.083-1.083.693.287zm0-1.53.693-.287zm-.434-.65-.53.531zm-.649-.433.287-.693zm5.11-4.713a.75.75 0 1 0 1.25-.83zm-15 9.953a.75.75 0 1 0 1.25-.83zM9.25 19.78a.75.75 0 1 0-.5 1.414zm11-7.781A8.25 8.25 0 0 1 12 20.25v1.5c5.385 0 9.75-4.365 9.75-9.75zm-16.5 0A8.25 8.25 0 0 1 12 3.75v-1.5c-5.385 0-9.75 4.365-9.75 9.75zm7.5-6v2h1.5V6zm0 10v2h1.5v-2zM15 7.25h-4v1.5h4zm-2 8H9v1.5h4zm0-4h-2v1.5h2zm-2-4a2.8 2.8 0 0 0-1.052.21l.574 1.385A1.3 1.3 0 0 1 11 8.75zm-1.052.21a2.8 2.8 0 0 0-.893.595l1.061 1.061a1.3 1.3 0 0 1 .406-.27zm-.893.595a2.8 2.8 0 0 0-.596.893l1.386.574a1.3 1.3 0 0 1 .271-.406zm-.596.893A2.8 2.8 0 0 0 8.25 10h1.5c0-.164.032-.327.095-.478zM8.25 10c0 .361.071.719.21 1.052l1.385-.574A1.3 1.3 0 0 1 9.75 10zm.21 1.052c.138.334.34.637.595.893l1.061-1.061a1.3 1.3 0 0 1-.27-.406zm.595.893c.256.255.559.457.893.596l.574-1.386a1.3 1.3 0 0 1-.406-.271zm.893.596c.333.138.69.209 1.052.209v-1.5c-.164 0-.327-.032-.478-.095zM13 16.75a2.8 2.8 0 0 0 1.052-.21l-.574-1.385a1.3 1.3 0 0 1-.478.095zm1.052-.21a2.8 2.8 0 0 0 .893-.595l-1.061-1.061a1.3 1.3 0 0 1-.406.27zm.893-.595a2.8 2.8 0 0 0 .596-.893l-1.386-.574a1.3 1.3 0 0 1-.271.406zm.596-.893A2.8 2.8 0 0 0 15.75 14h-1.5c0 .164-.032.327-.095.478zM15.75 14a2.8 2.8 0 0 0-.21-1.052l-1.385.574c.063.151.095.314.095.478zm-.21-1.052a2.8 2.8 0 0 0-.595-.893l-1.061 1.061q.175.176.27.406zm-.595-.893a2.8 2.8 0 0 0-.893-.596l-.574 1.386c.152.063.29.155.406.271zm-.893-.596A2.8 2.8 0 0 0 13 11.25v1.5c.164 0 .327.032.478.095zM12 3.75a8.24 8.24 0 0 1 6.875 3.689l1.25-.83A9.74 9.74 0 0 0 12 2.25zM5.125 16.561A8.2 8.2 0 0 1 3.75 12h-1.5c0 1.992.598 3.847 1.625 5.392zM12 20.25c-.966 0-1.89-.166-2.75-.47l-.5 1.415a9.7 9.7 0 0 0 3.25.555z"/></svg>