<svg xmlns="http://www.w3.org/2000/svg" xmlns:xlink="http://www.w3.org/1999/xlink" xml:space="preserve" viewBox="0 0 3000 2000"><defs><path id="a" d="M2479.898 1774.353c-71.386 22.862-158.338 29.055-227.399 24.29 0 0-1269.708 122.314-1728.672-3.088-339.681-92.81-298.674-423.214-194.721-634.694 105.138-213.89-170.849-627.333 272.798-867.076 255.179-137.896 484.054 82.774 925.196-80.135 398.277-147.079 912.033-15.523 1037.666 292.944 86.425 212.201-22.526 440.946 86.425 551.818 176.703 179.821 95.449 630.517-171.293 715.941"/></defs><clipPath id="b"><use xlink:href="#a" style="overflow:visible"/></clipPath><g style="clip-path:url(#b)"><path d="M2479.898 1774.353c-71.386 22.862-158.338 29.055-227.399 24.29 0 0-1269.708 122.314-1728.672-3.088-339.681-92.81-298.674-423.214-194.721-634.694 105.138-213.89-170.849-627.333 272.798-867.076 255.179-137.896 484.054 82.774 925.196-80.135 398.277-147.079 912.033-15.523 1037.666 292.944 86.425 212.201-22.526 440.946 86.425 551.818 176.703 179.821 95.449 630.517-171.293 715.941" style="fill:#dae6ff"/></g><g style="clip-path:url(#b)"><path d="M854.487 1842.754q.143.003.291-.024a1.45 1.45 0 0 0 1.161-1.692c-38.229-205.87-77.437-352.544-110.399-413.005-.732-1.342-1.261-2.311-1.45-2.794a1.45 1.45 0 1 0-2.702 1.061c.256.651.763 1.581 1.603 3.122 32.819 60.199 71.918 206.569 110.094 412.146a1.455 1.455 0 0 0 1.402 1.186" style="fill:#bbcff8"/><path d="M719.403 1414.812c3.942 6.812 25.982 20.928 27.926 19.802 1.945-1.125.685-27.267-3.258-34.079s-12.66-9.138-19.472-5.196-9.139 12.661-5.196 19.473M762.303 1438.889c-3.138 7.415-1.098 34.113 1.019 35.008s22.697-16.231 25.835-23.647-.331-15.97-7.746-19.108-15.97.331-19.108 7.747" style="fill:#bbcff8"/><path d="M729.542 1481.622c7.931 1.387 33.484-6.612 33.88-8.876s-20.926-18.459-28.857-19.847c-7.932-1.387-15.486 3.919-16.874 11.85-1.386 7.932 3.919 15.486 11.851 16.873M816.368 1578.465c-6.578 11.808-8.003 56.728-4.633 58.605 3.37 1.878 40.813-22.98 47.39-34.787s2.337-26.711-9.47-33.288c-11.806-6.577-26.71-2.337-33.287 9.47" style="fill:#bbcff8"/><path d="M753.966 1643.85c12.985 3.75 57.072-4.977 58.142-8.683s-31.58-34.59-44.565-38.339c-12.985-3.75-26.551 3.738-30.3 16.722s3.737 26.551 16.723 30.3M845.87 1632.118c-11.031 12.323-24.833 65.561-21.316 68.711 3.518 3.148 54.909-16.439 65.941-28.762s9.985-31.255-2.339-42.287c-12.322-11.032-31.254-9.985-42.286 2.338" style="fill:#bbcff8"/><path d="M757.573 1716.975c16.278 2.929 68.845-13.243 69.68-17.89.836-4.646-42.796-38.128-59.074-41.057s-31.848 7.892-34.777 24.17c-2.928 16.277 7.893 31.848 24.171 34.777M860.412 1699.476c-11.032 12.324-24.833 65.562-21.317 68.711 3.518 3.148 54.91-16.439 65.941-28.762s9.984-31.255-2.339-42.286c-12.322-11.033-31.254-9.986-42.285 2.337" style="fill:#bbcff8"/><path d="M772.113 1784.333c16.278 2.929 68.845-13.244 69.681-17.89s-42.796-38.128-59.074-41.057-31.848 7.893-34.777 24.171 7.893 31.847 24.17 34.776M898.914 1786.322c-14.894 7.193-47.933 51.161-45.881 55.412s57.032 5.716 71.925-1.477c14.894-7.192 21.137-25.097 13.946-39.99-7.193-14.894-25.097-21.137-39.99-13.945" style="fill:#bbcff8"/><path d="M784.235 1850.711c15.784 4.941 69.961-4.533 71.371-9.038s-37.694-43.179-53.478-48.12-32.585 3.85-37.526 19.633c-4.94 15.784 3.849 32.584 19.633 37.525M778.936 1482.325c-3.188 7.534-1.115 34.66 1.035 35.57s23.062-16.492 26.249-24.026c3.188-7.534-.336-16.226-7.87-19.414-7.535-3.188-16.226.336-19.414 7.87" style="fill:#bbcff8"/><path d="M746.648 1526.353c8.058 1.408 34.02-6.719 34.423-9.019s-21.261-18.756-29.32-20.165c-8.058-1.409-15.734 3.982-17.143 12.04-1.409 8.06 3.982 15.735 12.04 17.144M798.874 1523.153c-5.391 10.296-5.618 48.945-2.679 50.484s34.575-20.663 39.966-30.96 1.415-23.015-8.882-28.406c-10.296-5.391-23.013-1.415-28.405 8.882" style="fill:#bbcff8"/><path d="M747.77 1585.182c11.449 2.001 48.333-9.545 48.904-12.813s-30.206-26.646-41.654-28.647c-11.449-2.002-22.353 5.656-24.355 17.105s5.656 22.354 17.105 24.355" style="fill:#bbcff8"/></g><g style="clip-path:url(#b)"><path d="M1141.4 1989.374a2.618 2.618 0 0 1-2.872-2.866c37.541-376.052 85.818-645.789 135.932-759.525 1.114-2.525 1.917-4.348 2.183-5.245a2.626 2.626 0 0 1 3.26-1.762 2.62 2.62 0 0 1 1.76 3.261c-.362 1.209-1.133 2.96-2.41 5.858-49.897 113.243-98.025 382.417-135.515 757.933a2.62 2.62 0 0 1-2.338 2.346" style="fill:#bbcff8"/><path d="M1319.463 1199.242c-6.057 12.849-43.555 41.578-47.222 39.848-3.669-1.729-5.365-48.935.693-61.784 6.056-12.849 21.383-18.354 34.232-12.297s18.355 21.385 12.297 34.233M1245.958 1249.049c6.767 12.861 7.147 61.185 3.474 63.117-3.67 1.933-43.281-25.75-50.048-38.612-6.769-12.861-1.827-28.773 11.034-35.539 12.86-6.767 28.772-1.828 35.54 11.034" style="fill:#bbcff8"/><path d="M1311.358 1320.938c-14.053 3.698-61.223-6.815-62.278-10.827-1.056-4.012 34.836-36.372 48.89-40.069s28.446 4.7 32.144 18.754c3.695 14.055-4.701 28.444-18.756 32.142M1169.885 1508.274c13.62 20.239 22.994 100.811 17.218 104.699s-76.886-35.141-90.505-55.379-8.253-47.684 11.985-61.304c20.236-13.62 47.683-8.253 61.302 11.984" style="fill:#bbcff8"/><path d="M1292.028 1616.407c-22.785 8.713-103.399-.298-105.885-6.8-2.488-6.503 51.553-66.998 74.337-75.71 22.785-8.713 48.319 2.696 57.03 25.48 8.713 22.785-2.696 48.319-25.482 57.03M1124.96 1609.241c21.707 20.49 54.601 114.147 48.754 120.344-5.849 6.195-101.247-21.24-122.955-41.731-21.709-20.49-22.696-54.699-2.205-76.407 20.489-21.709 54.698-22.697 76.406-2.206" style="fill:#bbcff8"/><path d="M1296.628 1748.468c-28.831 7.736-125.825-13.38-128.032-21.61-2.208-8.228 71.188-75.062 100.019-82.797 28.831-7.736 58.475 9.365 66.211 38.197 7.736 28.829-9.367 58.474-38.198 66.21M1109.021 1732.589c21.709 20.492 54.603 114.147 48.756 120.344-5.849 6.196-101.248-21.241-122.956-41.731-21.709-20.49-22.695-54.698-2.206-76.406 20.489-21.71 54.698-22.697 76.406-2.207" style="fill:#bbcff8"/><path d="M1280.69 1871.816c-28.832 7.736-125.825-13.381-128.032-21.61s71.187-75.062 100.02-82.798c28.831-7.735 58.475 9.366 66.21 38.198s-9.367 58.474-38.198 66.21M1052.943 1894.618c27.877 10.677 93.965 84.745 90.918 92.701-3.047 7.958-101.705 18.927-129.581 8.25-27.877-10.677-41.82-41.932-31.144-69.807 10.676-27.877 41.93-41.821 69.807-31.144" style="fill:#bbcff8"/><path d="M1268.953 1993.034c-27.639 11.279-126.511 2.454-129.73-5.434-3.219-7.889 61.245-83.372 88.883-94.653 27.639-11.279 59.188 1.983 70.467 29.62 11.279 27.639-1.981 59.187-29.62 70.467M1222.63 1329.691c6.875 13.067 7.261 62.166 3.531 64.129-3.73 1.962-43.977-26.164-50.852-39.231s-1.856-29.234 11.211-36.109 29.234-1.856 36.11 11.211" style="fill:#bbcff8"/><path d="M1287.374 1403.981c-14.279 3.755-62.204-6.925-63.276-11.001s35.394-36.956 49.674-40.712c14.279-3.756 28.901 4.775 32.657 19.055s-4.775 28.901-19.055 32.658M1192.961 1406.143c11.258 17.7 17.524 87.176 12.473 90.389-5.053 3.213-65.315-31.92-76.573-49.621-11.257-17.702-6.035-41.177 11.668-52.435 17.699-11.258 41.174-6.034 52.432 11.667" style="fill:#bbcff8"/><path d="M1294.276 1509.954c-20.287 5.335-88.373-9.839-89.896-15.629-1.524-5.791 50.285-52.502 70.572-57.838s41.06 6.782 46.396 27.07-6.784 41.061-27.072 46.397" style="fill:#bbcff8"/></g><g style="clip-path:url(#b)"><path d="M2523.222 396.476a1.681 1.681 0 0 0-2.555.509c-113.832 214.372-184.071 375.739-197.781 454.377-.304 1.746-.523 3.007-.7 3.581a1.682 1.682 0 1 0 3.217.986c.237-.775.448-1.985.798-3.989 13.651-78.297 83.769-239.31 197.437-453.377a1.684 1.684 0 0 0-.416-2.087" style="fill:#bbcff8"/><path d="M2337.063 882.213c1.337-9.025-8.476-37.732-11.052-38.113-2.577-.382-20.292 24.246-21.629 33.271-1.338 9.025 4.895 17.424 13.919 18.762 9.024 1.337 17.425-4.895 18.762-13.92M2315.508 829.418c8.196-4.465 25.605-30.16 24.33-32.5-1.273-2.34-32.303-1.647-40.5 2.818s-11.221 14.729-6.756 22.925 14.729 11.222 22.926 6.757" style="fill:#bbcff8"/><path d="M2376.062 814.279c-6.195-6.98-35.151-18.157-37.144-16.388s5.67 31.845 11.865 38.826c6.197 6.981 16.879 7.616 23.859 1.421 6.981-6.197 7.616-16.878 1.42-23.859M2367.146 663.772c14.486-5.968 48.186-45.698 46.483-49.832s-53.609-8.593-68.095-2.625-21.39 22.549-15.422 37.035 22.549 21.39 37.034 15.422" style="fill:#bbcff8"/><path d="M2470.936 649.464c-9.076-12.77-55.374-36.657-59.018-34.067-3.645 2.59 3.7 54.167 12.776 66.937s26.787 15.763 39.556 6.687c12.77-9.077 15.763-26.787 6.686-39.557M2379.084 593.808c18.899-3.223 69.828-41.571 68.909-46.966-.92-5.394-61.68-24.697-80.58-21.474s-31.608 21.156-28.385 40.055 21.157 31.608 40.056 28.385" style="fill:#bbcff8"/><path d="M2520.416 580.514c-12.656-14.4-72.019-37.65-76.129-34.036-4.11 3.612 11.324 65.469 23.98 79.869s34.59 15.815 48.991 3.159 15.815-34.591 3.158-48.992M2414.483 522.202c18.9-3.223 69.829-41.571 68.911-46.965-.921-5.395-61.682-24.697-80.58-21.474-18.9 3.222-31.607 21.156-28.385 40.055 3.222 18.898 21.156 31.606 40.054 28.384" style="fill:#bbcff8"/><path d="M2555.817 508.908c-12.656-14.401-72.02-37.649-76.13-34.037s11.324 65.469 23.98 79.87 34.59 15.814 48.991 3.158 15.815-34.59 3.159-48.991M2442.202 415.628c18.703 4.219 80.4-11.84 81.604-17.178 1.205-5.338-47.624-46.33-66.325-50.549-18.702-4.219-37.284 7.522-41.502 26.224-4.22 18.702 7.52 37.284 26.223 41.503" style="fill:#bbcff8"/><path d="M2592.704 439.936c-10.757-15.87-66.748-46.358-71.277-43.288-4.53 3.07 3.051 66.371 13.807 82.241s32.343 20.014 48.212 9.258 20.015-32.341 9.258-48.211M2331.753 778.008c8.327-4.536 26.016-30.643 24.721-33.02s-32.823-1.674-41.15 2.863c-8.328 4.536-11.401 14.965-6.865 23.292 4.537 8.328 14.965 11.401 23.294 6.865" style="fill:#bbcff8"/><path d="M2392.811 761.352c-6.295-7.091-35.714-18.447-37.739-16.65s5.76 32.356 12.056 39.448 17.148 7.738 24.24 1.443c7.092-6.296 7.738-17.148 1.443-24.241M2343.115 726.579c12.32-5.453 40.407-40.357 38.851-43.873s-46.277-6.194-58.597-.742c-12.32 5.454-17.887 19.861-12.433 32.181 5.451 12.321 19.859 17.887 32.179 12.434" style="fill:#bbcff8"/><path d="M2434.233 707.165c-8.944-10.075-50.74-26.207-53.615-23.655-2.877 2.552 8.184 45.968 17.128 56.043 8.944 10.076 24.362 10.995 34.438 2.051 10.075-8.944 10.993-24.363 2.049-34.439" style="fill:#bbcff8"/></g><g style="clip-path:url(#b)"><path d="M2478.425 88.709a1.96 1.96 0 0 0-2.981-.579c-217.382 180.866-364.361 323.832-413.864 402.562-1.099 1.749-1.892 3.011-2.336 3.551a1.96 1.96 0 1 0 3.033 2.484c.598-.731 1.36-1.943 2.621-3.949 49.289-78.389 195.98-221.027 413.052-401.636.73-.605.907-1.629.475-2.433" style="fill:#bbcff8"/><path d="M2063.244 530.215c5.427-9.14 7.522-44.424 4.912-45.972-2.609-1.55-32.583 17.181-38.01 26.322-5.427 9.139-2.416 20.947 6.723 26.374 9.14 5.426 20.949 2.416 26.375-6.724M2063.315 463.776c10.808-1.195 40.924-21.211 40.582-24.297-.34-3.085-34.101-16.039-44.91-14.844-10.809 1.194-18.602 10.926-17.406 21.734 1.195 10.808 10.925 18.602 21.734 17.407" style="fill:#bbcff8"/><path d="M2135.287 474.191c-3.598-10.261-29.882-35.096-32.811-34.069s-7.948 36.837-4.351 47.099c3.599 10.262 14.835 15.664 25.096 12.067 10.262-3.599 15.664-14.835 12.066-25.097M2192.128 307.984c18.254-.038 72.129-27.993 72.118-33.203-.01-5.21-54.005-32.935-72.258-32.896s-33.018 14.867-32.979 33.121c.038 18.251 14.867 33.017 33.119 32.978" style="fill:#bbcff8"/><path d="M2310.348 338.384c-4.147-17.775-43.516-63.972-48.589-62.788-5.074 1.183-19.927 60.035-15.78 77.81s21.92 28.823 39.695 24.674c17.775-4.147 28.822-21.92 24.674-39.696M2235.891 237.823c21.799 4.87 93.642-13.989 95.033-20.211 1.389-6.222-55.597-53.861-77.396-58.732-21.8-4.87-43.419 8.854-48.289 30.653s8.853 43.419 30.652 48.29" style="fill:#bbcff8"/><path d="M2394.139 285.893c-7.287-21.114-61.024-72.392-67.051-70.311-6.026 2.08-16.698 75.586-9.41 96.7 7.287 21.114 30.311 32.324 51.426 25.037 21.113-7.287 32.323-30.312 25.035-51.426M2305.675 176.249c21.801 4.87 93.642-13.988 95.033-20.21 1.389-6.223-55.598-53.862-77.396-58.732-21.799-4.871-43.418 8.854-48.289 30.653-4.872 21.8 8.853 43.42 30.652 48.289" style="fill:#bbcff8"/><path d="M2463.924 224.321c-7.287-21.115-61.025-72.391-67.051-70.311s-16.698 75.586-9.411 96.701 30.311 32.323 51.426 25.036c21.114-7.288 32.323-30.312 25.036-51.426M2382.616 73.584c18.302 12.807 91.912 22.735 95.567 17.511 3.656-5.223-30.889-70.979-49.19-83.785-18.302-12.806-43.519-8.352-56.325 9.948-12.807 18.302-8.354 43.52 9.948 56.326" style="fill:#bbcff8"/><path d="M2534.148 166.246c-4.591-21.86-51.496-79.452-57.735-78.142s-26.016 72.905-21.426 94.765c4.591 21.86 26.033 35.859 47.892 31.27 21.861-4.592 35.86-26.033 31.269-47.893M2103.529 415.52c10.981-1.214 41.579-21.551 41.233-24.686-.347-3.134-34.649-16.297-45.63-15.082s-18.9 11.1-17.685 22.082 11.1 18.9 22.082 17.686" style="fill:#bbcff8"/><path d="M2176.714 424.522c-3.656-10.425-30.361-35.658-33.337-34.615-2.976 1.044-8.076 37.428-4.42 47.854s15.072 15.915 25.498 12.259 15.914-15.071 12.259-25.498M2138.488 365.089c15.69-.439 61.385-25.67 61.259-30.148-.125-4.479-47.159-27.112-62.85-26.673s-28.055 13.515-27.615 29.207c.439 15.69 13.515 28.053 29.206 27.614" style="fill:#bbcff8"/><path d="M2245.299 384.39c-5.194-14.812-43.134-50.659-47.362-49.177s-11.473 53.174-6.279 67.986 21.411 22.611 36.224 17.417 22.611-21.413 17.417-36.226" style="fill:#bbcff8"/></g><g style="clip-path:url(#b)"><path d="M1694.326 901.33v-96.146l422.044 96.146z" style="fill:#0b0755"/><path d="M515.098 1260.15c47.925-15.655 94.814-31.262 137.618-46.01 19.238-6.637 37.635-13.083 54.937-19.281 65.55-23.44 115.355-43.259 134.448-55.317 52.49-33.112 145.08-127.039 198.032-196.354l.008-.011s.017-.023.053-.049l.083-.114c5.972-7.828 11.447-15.336 16.281-22.403 5.452-7.98 10.114-15.384 13.824-22.065l.016-.023a159 159 0 0 0 3.985-7.655l.007-.01c3.631-7.53 5.702-13.818 5.859-18.526.159-4.497-1.392-7.547-4.936-8.885-5.5-2.09-13.487-.723-23.105 2.991l-.028.014c-1.5.585-3.024 1.204-4.606 1.901-4.438 1.936-9.146 4.288-14.097 6.97-9.936 5.34-20.758 12.03-31.935 19.301-55.689 36.204-119.847 86.891-123.356 61.335-3.473-25.653 28.533-71.779 62.565-104.697a260 260 0 0 1 8.515-7.946l.008-.011c16.168-14.503 32.156-25.365 44.418-29.07 17.478-5.313 54.58-3.28 87.499 5.246 2.726.684 5.398 1.417 8.029 2.207 4.453 1.32 8.767 2.732 12.975 4.17l.011.008c32.661 11.195 57.16 23.998 64.326 7.538l.008-.011c3.763-8.642-.896-14.868-9.429-21.552l-.103-.075-.278-.219c-1.722-1.335-3.609-2.685-5.627-4.094l-.365-.268c-3.399-2.371-7.116-4.837-10.982-7.603l-.011-.008-.011-.008c-3.265-2.292-6.638-4.748-10.038-7.454-42.07-33.66-118.752-60.387-118.752-60.387s42.819-28.42 91.976-44.75c38.641-12.853 85.021-13.396 86.78-26.193 0 0 .008-.011-.003-.02a6.8 6.8 0 0 0-.036-1.745c-1.456-8.893-10.781-14.402-26.965-16.805a.3.3 0 0 1-.082-.008l-.134-.01c-26.805-3.969-72.242.549-131.57 12.307-95.453 18.935-109.979 33.327-109.19 28.643.421-2.463 44.098-37.549 94.342-66.24 42.576-24.335 95.129-44.767 89.501-59.809.008-.011-.003-.02-.003-.02-.315-.862-.841-1.722-1.566-2.552-4.383-5.024-19.371-3.127-39.714 2.697l-.02.003-.008.011c-61.171 17.496-170.916 70.275-187.596 76.175 1.248-1.102 57.952-50.453 56.825-72.226l-.011-.008c-.06-1.306-.349-2.537-.862-3.631-2.655-5.563-14.97-2.479-32.067 5.783l-.008.011c-42.608 20.625-114.745 73.459-139.648 104.623-10.491 13.125-20.565 27.977-30.125 43.874-13.55 22.458-26.092 47.008-37.533 71.875l-.02.003c-40.07 87.118-66.536 177.764-73.625 193.929-1.348 3.08-23.265 7.822-58.303 13.566-27.332 4.469-62.617 9.523-102.353 14.854 2.855 78.898 19.1 151.026 40.285 212.238a725 725 0 0 0 8.801 24.107 711 711 0 0 0 7.086 17.743" style="fill:#fd9e87"/><path d="m1069.128 573.291-5.168-13.686c-.604-1.598.644-3.55 2.787-4.359l19.055-5.653c8.503-1.953 17.23-3.535 19.069 1.338l.488 1.289c1.952 5.171-2.083 11.484-9.014 14.101l-22.244 8.399c-2.143.809-4.37.169-4.973-1.429M1146.267 660.765l.827-15.987c.097-1.867 2.204-3.276 4.707-3.146l26.83 1.39c7.629.395 13.576 5.329 13.281 11.021l-.079 1.507c-.312 6.04-7.129 10.597-15.225 10.177l-25.984-1.346c-2.503-.131-4.454-1.749-4.357-3.616M1125.56 812.811l9.447-12.925c1.103-1.51 5.661-.055 5.661-.055l21.69 15.852c6.168 4.508 8.442 11.893 5.078 16.495l-.889 1.217c-3.569 4.883-11.768 4.964-18.313.18l-21.007-15.353c-2.023-1.48-2.769-3.903-1.667-5.411M905.516 575.047l-5.161-9.718c-.602-1.136.336-2.813 2.096-3.747l18.867-10.021c5.366-2.85 11.205-2.355 13.042 1.104l.486.917c1.95 3.67-1.085 9.098-6.778 12.122l-18.273 9.704c-1.761.935-3.676.773-4.279-.361" style="fill:#cf564b"/><path d="m1671.392 638.174-669.634 204.675 79.173 259.027 669.635-204.675z" style="fill:#bbcff8"/><path d="m1013.77 849.233 73.55 240.63 651.231-199.046L1665 650.188zm60.77 264.656-84.793-277.427 688.036-210.301 84.795 277.429z" style="fill:#75a5ed"/><path d="M1487.594 840.942c13.645 59.867-23.827 119.467-83.696 133.1-59.869 13.656-119.464-23.817-133.111-83.683-13.646-59.869 23.827-119.467 83.697-133.121 59.867-13.635 119.463 23.837 133.11 83.704" style="fill:#6192e6"/><path d="m1392.611 973.882-4.605-24.884c-14.332 2.397-29.938.69-39.699-3.873l2.859-17.597c9.961 4.27 23.639 6.585 37.434 4.033 17.49-3.238 27.446-15.523 24.846-29.572-2.501-13.537-13.658-20.135-33.263-24.165-26.947-5.202-44.558-13.653-48.528-35.094-3.777-20.438 7.88-38.659 29.86-46.541l-4.602-24.884 15.277-2.817 4.422 23.895c14.869-2.242 25.7-.169 33.611 2.685l-3.144 17.411c-5.724-2.008-16.83-5.565-32.591-2.64-18.97 3.507-24.015 16.166-22.193 26.014 2.369 12.813 12.67 17.529 35.741 22.43 27.293 5.664 42.47 16.098 46.524 38.019 3.601 19.465-6.575 40.2-31.176 49.076l4.743 25.624z" style="fill:#bbcff8"/><path d="M1562.407 813.717c-4.104-13.428-18.318-20.985-31.756-16.891-13.427 4.112-20.989 18.328-16.883 31.757 4.103 13.428 18.329 21.003 31.755 16.892 13.428-4.113 20.989-18.329 16.884-31.758M1238.908 912.604c-4.105-13.43-18.319-20.986-31.758-16.892-13.426 4.11-20.989 18.328-16.882 31.756 4.102 13.429 18.317 20.989 31.754 16.894 13.427-4.113 20.988-18.329 16.886-31.758" style="fill:#6192e6"/><path d="M1001.539 894.619s65.986-46.661 77.5-29.442-57.622 101.554-57.622 101.554z" style="fill:#fd9e87"/><path d="m1049.461 909.266-16.497-19.41c-1.927-2.267-1.74-5.591.416-7.424l23.121-19.65c6.574-5.587 16.665-4.515 22.538 2.395l1.555 1.829c6.233 7.333 5.629 18.085-1.348 24.015l-22.392 19.031c-2.156 1.834-5.467 1.481-7.393-.786" style="fill:#cf564b"/><path d="m152.677 1056.337 408.603-75.508 91.435 233.312 13.356 32.555-514.449 268.98c0-131.939 1.055-334.315 1.055-459.339" style="fill:#e85f58"/><circle cx="550.841" cy="1229.12" r="23.877" style="fill:#140775" transform="rotate(-45.001 550.83 1229.132)"/><circle cx="435.05" cy="1272.129" r="23.877" style="fill:#140775" transform="rotate(-22.328 435.067 1272.17)"/><circle cx="318.482" cy="1319.882" r="23.877" style="fill:#140775"/><path d="M1601.917 901.157h514.445v384.585h-514.445z" style="fill:#4851ec" transform="rotate(-180 1859.14 1093.45)"/><path d="M1630.636 928.628h454.509v327.146h-454.509zm452.012 2.497h-449.515v322.152h449.515z" style="fill:#0b0755"/><path d="M1592.411 1065.442h225.982v69.025h-225.982z" style="fill:#4851ec" transform="rotate(-180 1705.402 1099.954)"/><path d="M1591.162 1064.193h228.479v71.522h-228.479zm225.982 2.497H1593.66v66.528h223.484z" style="fill:#0b0755"/><path d="M1787.55 1100.941c0-6.896-5.59-12.486-12.487-12.486-6.896 0-12.486 5.59-12.486 12.486s5.59 12.487 12.486 12.487 12.487-5.59 12.487-12.487" style="fill:#fa7267"/></g><g style="clip-path:url(#b)"><path d="M2593.082 1588.13c-91.615-82.048-267.794-241.845-305.618-290.759-43.452-56.214-119.307-147.951-170.775-163.917-48.55-15.066-128.199-4.79-225.741-.343-115.923 5.293-190.37 19.328-208.225 28.196-24.639 12.239-15.515 43.867 17.508 61.532 31.05 16.615 179.435-9.549 199 31.373 6.383 13.346-165.647 31.774-192.859 27.462-27.222-4.307-169.358-139.279-221.677-169.564-52.328-30.28-86.786-5.212-86.363 1.47 1.006 16.004 207.541 266.981 272.753 321.638 65.217 54.642 382.413-10.9 426.463-8.518 32.425 1.752 264.847 269.276 328.919 344.214 81.427-.067 55.947-141.114 133.319-169.62l.01-.005a759 759 0 0 0 33.286-13.159" style="fill:#f9a58f"/></g><g style="clip-path:url(#b)"><path d="m2393.365 1344.668-85.244-68.425-179.15 201.372 57.845 83.95z" style="fill:#fff"/><path d="m2165.241 1541.796 213.202-236.396s206.215 131.082 398.678 256.28c.742 2.156 483.576 316.157 484.315 318.309 59.445 173.033-212.876 251.542-344.75 506.338-254.706-260.232-751.445-844.531-751.445-844.531" style="fill:#160a72"/><path d="M2169.281 1473.289c5.479 2.595 7.816 9.141 5.221 14.619-2.596 5.479-9.141 7.816-14.62 5.221s-7.816-9.141-5.22-14.62 9.14-7.816 14.619-5.22" style="fill:#100259"/></g></svg>