<svg xmlns="http://www.w3.org/2000/svg" version="1.1" xmlns:xlink="http://www.w3.org/1999/xlink" xmlns:svgjs="http://svgjs.dev/svgjs" width="2000" height="712" viewBox="0 0 2000 712"><g transform="matrix(1,0,0,1,-1.2116059082526363,-0.7325509426677854)"><svg viewBox="0 0 396 141" data-background-color="#ffffff" preserveAspectRatio="xMidYMid meet" height="712" width="2000" xmlns="http://www.w3.org/2000/svg" xmlns:xlink="http://www.w3.org/1999/xlink"><g id="tight-bounds" transform="matrix(1,0,0,1,0.23989796983403266,0.14506977937662668)"><svg viewBox="0 0 395.52 140.70986044124675" height="140.70986044124675" width="395.52"><g><svg viewBox="0 0 395.52 140.70986044124675" height="140.70986044124675" width="395.52"><g transform="matrix(1,0,0,1,0,92.22286368937247)"><svg viewBox="0 0 395.52 48.48699675187429" height="48.48699675187429" width="395.52"><g id="textblocktransform"><svg viewBox="0 0 395.52 48.48699675187429" height="48.48699675187429" width="395.52" id="textblock"><g><svg viewBox="0 0 395.52 48.48699675187429" height="48.48699675187429" width="395.52"><g transform="matrix(1,0,0,1,0,0)"><svg width="395.52" viewBox="2.864336692529837 -15.417 271.2158716700477 33.24849" height="48.48699675187429" data-palette-color="#3fa2ff"><path d="M31.914-7.335v0c-0.083-0.889-0.284-1.634-0.601-2.234v0l14.018-1.315c1.477 3.042 2.715 6.816 3.714 11.322 1.005 4.499 1.718 8.815 2.139 12.947v0l-11.37 1.067c-0.779-5.88-2.279-11.481-4.499-16.803v0c-2.331 5.843-3.34 11.68-3.028 17.509v0l-9.637 0.905c-1.459-6.345-3.634-11.896-6.525-16.653v0c-1.382 4.328-1.905 8.281-1.569 11.858v0c0.181 1.932 0.582 3.745 1.204 5.441v0l-11.957 1.122c-0.352-1.326-0.632-3.095-0.84-5.304-0.208-2.217-0.088-4.471 0.36-6.763v0c2.266-0.902 4.396-2.244 6.392-4.025 2.003-1.775 3.425-3.643 4.265-5.603v0c-0.989-1.333-2.018-2.596-3.087-3.788v0l15.551-1.46c1.558 3.262 2.836 6.848 3.832 10.759v0c1.354-3.2 1.9-6.195 1.638-8.982zM86.815 10.932v0l0.024 0.399-11.441 0.665c-0.238-1.803-0.63-3.726-1.177-5.772v0c-2.169 2.437-4.359 4.51-6.57 6.222v0l-11.491 0.667c-0.311-1.338-0.531-3.114-0.66-5.331-0.129-2.223 0.071-4.472 0.6-6.746v0c2.33-0.823 4.541-2.12 6.636-3.891 2.088-1.771 3.568-3.64 4.442-5.607v0c-1.002-1.391-2.011-2.604-3.026-3.641v0l16.372-0.951c3.669 6.952 5.766 14.948 6.291 23.986zM73.123 2.672v0c-0.983-2.781-2.261-5.478-3.835-8.091v0c-1.28 4.629-1.92 8.973-1.918 13.033v0c2.359-1.459 4.277-3.107 5.753-4.942zM114.629-14.495v0l1.63-0.047c2.112-0.061 3.671-0.353 4.676-0.875v0c-1.391 2.181-2.737 4.081-4.037 5.699v0l-0.789 0.023c-1.679 0.049-3.316-0.168-4.911-0.649v0c-2.186 1.911-3.911 4.415-5.175 7.513v0c3.518 0.792 7.418 1.206 11.7 1.243v0c1.059 2.477 1.851 6.476 2.378 11.996v0l-12.795 0.37c-0.63-2.423-1.541-4.644-2.734-6.664-1.199-2.026-2.419-3.402-3.66-4.126v0c-0.149 2.705-0.199 4.881-0.152 6.527 0.048 1.646 0.137 3.127 0.269 4.444v0l-10.866 0.314c-0.76-4.82-1.188-8.903-1.284-12.248-0.096-3.339 0.03-7.487 0.381-12.446v0l13.724-0.397c-0.868 4.113-1.442 7.558-1.722 10.334v0c1.409-2.475 2.906-4.569 4.49-6.282 1.578-1.706 3.47-3.168 5.676-4.386v0c0.855-0.191 1.922-0.306 3.201-0.343zM155.706 9.961v0l0 0.4-11.46 0.01c-0.135-1.813-0.417-3.756-0.845-5.829v0c-2.305 2.309-4.609 4.254-6.915 5.836v0l-11.51 0.011c-0.235-1.353-0.353-3.14-0.355-5.36-0.002-2.227 0.326-4.46 0.984-6.7v0c2.373-0.689 4.655-1.858 6.847-3.507 2.185-1.649 3.77-3.43 4.755-5.344v0c-0.921-1.446-1.859-2.715-2.813-3.808v0l16.399-0.015c3.267 7.15 4.904 15.252 4.913 24.306zM142.508 0.933v0c-0.823-2.833-1.945-5.598-3.368-8.297v0c-1.542 4.548-2.428 8.849-2.658 12.902v0c2.439-1.322 4.447-2.857 6.026-4.605zM160.225-14.221l13.337 0.273-0.027 1.339c-0.178 8.692-0.88 16.469-2.108 23.332v0l-11.857-0.243c0.689-3.02 1.073-6.513 1.154-10.478 0.081-3.966-0.085-8.707-0.499-14.223zM209.427 11.934v0l-0.017 0.399-11.449-0.499c-0.054-1.817-0.249-3.771-0.585-5.862v0c-2.405 2.204-4.794 4.045-7.168 5.523v0l-11.499-0.501c-0.174-1.362-0.213-3.152-0.116-5.371 0.097-2.225 0.524-4.441 1.281-6.65v0c2.401-0.583 4.733-1.649 6.996-3.198 2.256-1.55 3.919-3.259 4.989-5.128v0c-0.856-1.485-1.736-2.795-2.642-3.928v0l16.385 0.714c2.945 7.289 4.22 15.455 3.825 24.501zM196.644 2.327v0c-0.696-2.866-1.694-5.679-2.995-8.438v0c-1.743 4.475-2.82 8.732-3.23 12.771v0c2.495-1.212 4.57-2.657 6.225-4.333zM224.8 6.292l-0.069 0.977c-0.134 1.875-0.201 3.936-0.201 6.182v0l-10.842-0.774c-0.97-5.323-1.245-10.923-0.826-16.802v0c0.214-2.992 0.583-5.643 1.109-7.951v0l26.712 1.907c0.686 3.785 0.895 8.245 0.629 13.379v0c-5.016 1.821-10.52 2.848-16.512 3.082zM225.093 2.894v0c2.12-0.116 3.913-0.516 5.379-1.2v0c-0.277-3.522-1.469-6.712-3.577-9.569v0c-0.757 3.214-1.358 6.804-1.802 10.769zM257.244 9.048l-0.096 0.976c-0.184 1.871-0.306 3.929-0.366 6.173v0l-10.818-1.064c-0.827-5.347-0.952-10.953-0.374-16.818v0c0.294-2.986 0.734-5.625 1.321-7.918v0l26.652 2.623c0.584 3.802 0.674 8.266 0.269 13.39v0c-5.063 1.686-10.592 2.565-16.588 2.638zM257.628 5.66v0c2.123-0.059 3.926-0.411 5.409-1.056v0c-0.182-3.528-1.289-6.749-3.319-9.661v0c-0.843 3.193-1.54 6.765-2.09 10.717z" opacity="1" transform="matrix(1,0,0,1,0,0)" fill="#3fa2ff" class="wordmark-text-0" data-fill-palette-color="primary" id="text-0"></path></svg></g></svg></g></svg></g></svg></g><g transform="matrix(1,0,0,1,127.9045248250801,0)"><svg viewBox="0 0 139.71095034983978 78.45196074453258" height="78.45196074453258" width="139.71095034983978"><g><svg xmlns="http://www.w3.org/2000/svg" xmlns:xlink="http://www.w3.org/1999/xlink" version="1.1" x="0" y="0" viewBox="1.700000000000001 22.9 96.69999999999999 54.300000000000004" enable-background="new 0 0 100 100" xml:space="preserve" height="78.45196074453258" width="139.71095034983978" class="icon-icon-0" data-fill-palette-color="accent" id="icon-0"><g fill="#156ec1" data-fill-palette-color="accent"><path d="M74.3 50c0 2.5-2.1 4.6-4.6 4.6s-4.6-2.1-4.6-4.6c0-2.5 2.1-4.6 4.6-4.6S74.3 47.5 74.3 50zM16.7 50c0 2.5 2.1 4.6 4.6 4.6 2.5 0 4.6-2.1 4.6-4.6 0-2.5-2.1-4.6-4.6-4.6C18.8 45.4 16.7 47.5 16.7 50zM9.3 77.1h52.8v-6.5h-45c0.1-0.5 0.1-0.9 0.1-1.4 0-4.2-3.4-7.7-7.7-7.7-0.5 0-0.9 0-1.3 0.1V38.3c0.4 0.1 0.9 0.1 1.3 0.1 4.2 0 7.7-3.4 7.7-7.7 0-0.5 0-1-0.1-1.4h56.4c-0.2 0.6-0.2 1.2-0.2 1.9 0 4.2 3.4 7.7 7.7 7.7 0.7 0 1.3-0.1 1.9-0.2v15.7h6.5V30.5c0-4.2-3.4-7.6-7.6-7.6H9.3c-4.2 0-7.6 3.4-7.6 7.6v39C1.7 73.7 5.1 77.1 9.3 77.1zM65.1 71.7c-0.5 0-1 0.4-1 1v3.5c0 0.5 0.4 1 1 1h23.3c0.5 0 1-0.4 1-1v-3.5c0-0.5-0.4-1-1-1H65.1zM93.8 68.5V65c0-0.5-0.4-1-1-1H69.6c-0.5 0-1 0.4-1 1v3.5c0 0.5 0.4 1 1 1h23.3C93.4 69.5 93.8 69.1 93.8 68.5zM97.3 56.4H74.1c-0.5 0-1 0.4-1 1v3.5c0 0.5 0.4 1 1 1h23.3c0.5 0 1-0.4 1-1v-3.5C98.3 56.8 97.9 56.4 97.3 56.4zM45.5 33.4c9.2 0 16.6 7.5 16.6 16.6 0 9.2-7.5 16.6-16.6 16.6-9.2 0-16.6-7.5-16.6-16.6C28.9 40.8 36.3 33.4 45.5 33.4zM50.8 43.1l-7.4 7.4-3.1-3.1L37 50.6l3.1 3.1 3.2 3.2 3.2-3.2 7.4-7.4L50.8 43.1z" fill="#156ec1" data-fill-palette-color="accent"></path></g></svg></g></svg></g><g></g></svg></g><defs></defs></svg><rect width="395.52" height="140.70986044124675" fill="none" stroke="none" visibility="hidden"></rect></g></svg></g></svg>