<?xml version="1.0" encoding="UTF-8"?>
<!-- Generator: Adobe Illustrator 27.5.0, SVG Export Plug-In . SVG Version: 6.00 Build 0)  -->
<svg version="1.1" xmlns="http://www.w3.org/2000/svg" xmlns:xlink="http://www.w3.org/1999/xlink" x="0px" y="0px" viewBox="0 0 900 600" style="enable-background:new 0 0 900 600;" xml:space="preserve">
<g id="Layer_2">
	<rect style="fill:#FFFFFF;" width="900" height="600"/>
	<rect style="opacity:0;fill:#FFFFFF;" width="900" height="600"/>
</g>
<g id="Layer_1">
	<g>
		<g>
			<g>
				<ellipse style="fill:#E9ECF2;" cx="448.046" cy="553.478" rx="352.561" ry="16.8"/>
			</g>
		</g>
		<g>
			<g>
				<path style="fill:#F3FAFF;" d="M215.368,496.737c-61.182-18.968-144-113.855-110.345-206.361      c19.147-52.629,79.265-56.55,126.521-65.293c65.667-12.15,95.225-50.789,138.719-98.346      c48.598-53.137,158.976-115.212,256.605-32.504c26.292,22.273,30.478,65.345,64.403,95.582      c34.117,30.408,78.606,30.545,98.629,90.749c15.6,46.906-51.561,144.497-97.07,173.583      C608.659,507.94,353.333,539.509,215.368,496.737z"/>
			</g>
		</g>
		<g>
			<g>
				<g>
					<g>
						<g>
							<g>
								<g>
									<g>
										<path style="fill:#9AADE5;" d="M827.829,302.848c-0.008,0.348-0.017,0.688-0.025,1.036            c-0.977,42.534-7.068,75.41-15.792,100.818l-22.597,12.462l18.145-1.843l0.518-0.051            c-11.247,27.838-25.706,45.448-39.077,56.559c-8.317,6.932-16.217,11.341-22.656,14.127            c-0.425,0.187-0.841,0.365-1.257,0.535c-1.036,0.433-2.039,0.815-2.99,1.164h-12.071c-0.136-0.569-0.263-1.13-0.382-1.699            c-0.085-0.357-0.161-0.714-0.229-1.07c-0.11-0.467-0.204-0.943-0.297-1.41c-11.358-55.565,8.86-98.355,33.912-128.299            c0.068-0.102,0.153-0.195,0.246-0.297c8.716-10.389,18.018-19.233,26.759-26.513l4.613,13.83l1.758-18.944            c15.181-11.783,27.643-18.468,30.701-20.04C827.583,302.966,827.829,302.848,827.829,302.848z"/>
									</g>
								</g>
							</g>
						</g>
					</g>
				</g>
				<g>
					<g>
						<g>
							<g>
								<g>
									<g>
										<g>
											<polygon style="fill:#FFFFFF;" points="828.245,303.068 827.803,303.884 800.373,354.353 799.88,355.245              792.405,369.006 792.15,369.465 768.305,413.333 768.271,413.392 729.415,484.886 728.829,485.957 727.903,487.655              726.849,487.655 727.767,485.957 729.117,483.476 767.464,412.925 768.177,411.617 827.107,303.213 827.43,302.618                         "/>
										</g>
									</g>
								</g>
							</g>
						</g>
					</g>
				</g>
				<g>
					<g>
						<g>
							<g>
								<g>
									<g>
										
											<rect x="789.478" y="359.446" transform="matrix(0.8524 -0.5228 0.5228 0.8524 -68.8952 475.5949)" style="fill:#FFFFFF;" width="37.255" height="0.81"/>
									</g>
								</g>
							</g>
						</g>
					</g>
				</g>
				<g>
					<g>
						<g>
							<g>
								<g>
									<g>
										
											<rect x="797.671" y="347.113" transform="matrix(0.8524 -0.5228 0.5228 0.8524 -61.8328 475.9537)" style="fill:#FFFFFF;" width="29.202" height="0.81"/>
									</g>
								</g>
							</g>
						</g>
					</g>
				</g>
				<g>
					<g>
						<g>
							<g>
								<g>
									<g>
										
											<rect x="765.255" y="354.783" transform="matrix(0.9971 -0.0766 0.0766 0.9971 -27.1661 59.7539)" style="fill:#FFFFFF;" width="0.81" height="58.727"/>
									</g>
								</g>
							</g>
						</g>
					</g>
				</g>
				<g>
					<g>
						<g>
							<g>
								<g>
									<g>
										<path style="fill:#BAC8F3;" d="M724.695,496.805c0,0,27.828,14.975,69.689-7.105l-12.836-6.935l21.441,1.987            c16.424-10.255,34.697-26.238,54.082-50.716l-4.899-2.643l6.5,0.599c3.271-4.186,6.573-8.619,9.903-13.31            c0,0-11.865-1.682-29.01-0.602l-9.367,11.387l3.055-10.871C798.129,422.059,746.444,437.662,724.695,496.805z"/>
									</g>
								</g>
							</g>
						</g>
					</g>
				</g>
				<g>
					<g>
						<g>
							<g>
								<g>
									<g>
										<g>
											
												<rect x="713.517" y="455.896" transform="matrix(0.8885 -0.4588 0.4588 0.8885 -120.6944 415.8927)" style="fill:#FFFFFF;" width="164.212" height="0.914"/>
										</g>
									</g>
								</g>
							</g>
						</g>
					</g>
				</g>
				<g>
					<g>
						<g>
							<g>
								<g>
									<g>
										
											<rect x="840.229" y="430.009" transform="matrix(0.1544 -0.988 0.988 0.1544 275.9331 1202.8218)" style="fill:#FFFFFF;" width="0.849" height="20.404"/>
									</g>
								</g>
							</g>
						</g>
					</g>
				</g>
				<g>
					<g>
						<g>
							<g>
								<g>
									<g>
										
											<rect x="831.862" y="434.311" transform="matrix(0.2266 -0.974 0.974 0.2266 208.938 1155.8051)" style="fill:#FFFFFF;" width="0.85" height="24.043"/>
									</g>
								</g>
							</g>
						</g>
					</g>
				</g>
				<g>
					<g>
						<g>
							<g>
								<g>
									<g>
										<g>
											<path style="fill:#2E4882;" d="M760.773,446.511l-0.67-0.838c12.436-9.939,27.334-17.419,44.282-22.23l0.293,1.032             C787.869,429.248,773.097,436.661,760.773,446.511z"/>
										</g>
									</g>
								</g>
							</g>
						</g>
					</g>
				</g>
			</g>
			<g>
				<g>
					<g>
						<g>
							<path style="fill:#446BD0;" d="M753.109,176.925v366.25c0,5.114-4.138,9.263-9.263,9.263H563.82         c-5.114,0-9.263-4.149-9.263-9.263v-366.25c0-5.125,4.149-9.263,9.263-9.263h180.027         C748.971,167.662,753.109,171.8,753.109,176.925z"/>
						</g>
					</g>
				</g>
			</g>
			<g>
				<g>
					<g>
						<g>
							<path style="fill:#A2C3F2;" d="M744.533,176.925v366.25c0,5.114-4.138,9.263-9.263,9.263H555.243         c-5.114,0-9.263-4.149-9.263-9.263v-366.25c0-5.125,4.149-9.263,9.263-9.263H735.27         C740.394,167.662,744.533,171.8,744.533,176.925z"/>
						</g>
					</g>
				</g>
			</g>
			<g>
				<g>
					<g>
						<g>
							<path style="fill:#E1EAFF;" d="M730.897,214.902v290.296c0,5.912-4.486,10.704-10.019,10.704H569.634         c-5.533,0-10.018-4.793-10.018-10.704V214.902c0-5.912,4.485-10.704,10.018-10.704h151.245         C726.412,204.198,730.897,208.99,730.897,214.902z"/>
						</g>
					</g>
				</g>
			</g>
			<g>
				<g>
					<g>
						<g>
							<g>
								<g>
									<path style="fill:#2E4882;" d="M670.274,185.317h-50.03c-0.493,0-0.893-0.4-0.893-0.893c0-0.493,0.4-0.893,0.893-0.893           h50.03c0.493,0,0.893,0.4,0.893,0.893C671.167,184.917,670.767,185.317,670.274,185.317z"/>
								</g>
							</g>
						</g>
					</g>
				</g>
			</g>
			<g>
				<g>
					<g>
						<path style="fill:#608BE2;" d="M689.588,419.492h-88.662c-5.483,0-9.969-4.486-9.969-9.969v-3.818        c0-5.483,4.486-9.969,9.969-9.969h88.662c5.483,0,9.969,4.486,9.969,9.969v3.818        C699.557,415.006,695.071,419.492,689.588,419.492z"/>
					</g>
				</g>
			</g>
			<g>
				<g>
					<g>
						<g>
							<path style="fill:#FFFFFF;" d="M722.812,518.046H567.701c-6.848,0-12.419-5.764-12.419-12.848V214.902         c0-7.085,5.571-12.848,12.419-12.848h155.112c6.848,0,12.419,5.764,12.419,12.848v290.296         C735.232,512.283,729.661,518.046,722.812,518.046z M567.701,206.342c-4.483,0-8.131,3.84-8.131,8.56v290.296         c0,4.72,3.648,8.56,8.131,8.56h155.112c4.483,0,8.131-3.84,8.131-8.56V214.902c0-4.72-3.648-8.56-8.131-8.56H567.701z"/>
						</g>
					</g>
				</g>
			</g>
			<g>
				<g>
					<g>
						<g>
							<path style="fill:#446BD0;" d="M573.649,358.11h143.348c2.951,0,5.365-2.414,5.365-5.365v-92.256         c0-2.951-2.414-5.365-5.365-5.365H573.649c-2.951,0-5.365,2.414-5.365,5.365v92.256         C568.283,355.696,570.698,358.11,573.649,358.11z"/>
						</g>
					</g>
				</g>
				<g>
					<g>
						<g>
							<g>
								<g>
									<g>
										<path style="fill:#FFFFFF;" d="M607.06,325.937h-25.806c-0.799,0-1.453-0.654-1.453-1.453v-4.96            c0-0.799,0.654-1.453,1.453-1.453h25.806c0.799,0,1.453,0.654,1.453,1.453v4.96            C608.513,325.283,607.859,325.937,607.06,325.937z"/>
									</g>
								</g>
							</g>
						</g>
					</g>
					<g>
						<g>
							<g>
								<g>
									<g>
										<path style="fill:#FFFFFF;" d="M641.17,325.937h-25.806c-0.799,0-1.453-0.654-1.453-1.453v-4.96            c0-0.799,0.654-1.453,1.453-1.453h25.806c0.799,0,1.453,0.654,1.453,1.453v4.96            C642.623,325.283,641.969,325.937,641.17,325.937z"/>
									</g>
								</g>
							</g>
						</g>
					</g>
					<g>
						<g>
							<g>
								<g>
									<g>
										<path style="fill:#FFFFFF;" d="M675.28,325.937h-25.806c-0.799,0-1.453-0.654-1.453-1.453v-4.96            c0-0.799,0.654-1.453,1.453-1.453h25.806c0.799,0,1.453,0.654,1.453,1.453v4.96            C676.734,325.283,676.08,325.937,675.28,325.937z"/>
									</g>
								</g>
							</g>
						</g>
					</g>
					<g>
						<g>
							<g>
								<g>
									<g>
										<path style="fill:#FFFFFF;" d="M709.391,325.937h-25.806c-0.799,0-1.453-0.654-1.453-1.453v-4.96            c0-0.799,0.654-1.453,1.453-1.453h25.806c0.799,0,1.453,0.654,1.453,1.453v4.96            C710.844,325.283,710.19,325.937,709.391,325.937z"/>
									</g>
								</g>
							</g>
						</g>
					</g>
				</g>
				<g>
					<g>
						<g>
							<g>
								<g>
									<g>
										<path style="fill:#FFFFFF;" d="M709.075,341.324h-33.95c-0.973,0-1.768-0.796-1.768-1.768v-4.329            c0-0.973,0.796-1.768,1.768-1.768h33.95c0.973,0,1.768,0.796,1.768,1.768v4.329            C710.844,340.529,710.048,341.324,709.075,341.324z"/>
									</g>
								</g>
							</g>
						</g>
					</g>
				</g>
				<g>
					<g>
						<g>
							<g>
								<g>
									<g>
										<path style="fill:#FFFFFF;" d="M586.352,285.516v-10.33c0-2.258,1.837-4.095,4.095-4.095h20.068            c2.258,0,4.095,1.837,4.095,4.095v10.33c0,2.258-1.837,4.095-4.095,4.095h-20.068            C588.189,289.61,586.352,287.773,586.352,285.516z M590.447,272.19c-1.652,0-2.996,1.344-2.996,2.996v10.33            c0,1.652,1.344,2.996,2.996,2.996h20.068c1.652,0,2.996-1.344,2.996-2.996v-10.33c0-1.652-1.344-2.996-2.996-2.996            H590.447z"/>
									</g>
								</g>
							</g>
						</g>
					</g>
				</g>
				<g>
					<g>
						<g>
							<g>
								<g>
									<path style="fill:#FFFFFF;" d="M706.083,278.917c0-0.127,0.049-0.255,0.146-0.352c4.513-4.513,4.513-11.856,0-16.368           c-0.194-0.194-0.194-0.509,0-0.704c0.194-0.195,0.509-0.195,0.704,0c4.901,4.901,4.901,12.875,0,17.776           c-0.195,0.194-0.509,0.194-0.704,0C706.131,279.172,706.083,279.044,706.083,278.917z"/>
								</g>
							</g>
						</g>
					</g>
					<g>
						<g>
							<g>
								<g>
									<path style="fill:#FFFFFF;" d="M703.593,264.69c0-0.127,0.049-0.255,0.146-0.352c0.194-0.194,0.509-0.194,0.704,0           c3.332,3.332,3.332,8.753,0,12.084c-0.194,0.194-0.509,0.194-0.704,0c-0.194-0.194-0.194-0.509,0-0.704           c2.943-2.944,2.943-7.734,0-10.677C703.642,264.945,703.593,264.818,703.593,264.69z"/>
								</g>
							</g>
						</g>
					</g>
					<g>
						<g>
							<g>
								<g>
									<path style="fill:#FFFFFF;" d="M701.204,273.43c0-0.127,0.049-0.255,0.146-0.352c1.487-1.487,1.487-3.907,0-5.395           c-0.194-0.194-0.194-0.509,0-0.704c0.195-0.194,0.51-0.194,0.704,0c1.875,1.875,1.875,4.927,0,6.803           c-0.194,0.194-0.509,0.194-0.704,0C701.253,273.685,701.204,273.558,701.204,273.43z"/>
								</g>
							</g>
						</g>
					</g>
				</g>
			</g>
			<g>
				<g>
					<g>
						<g>
							<g>
								<path style="fill:#2E4882;" d="M745.337,470.709h-1.608V176.925c0-4.664-3.794-8.459-8.458-8.459H555.242          c-4.664,0-8.458,3.795-8.458,8.459v251.631h-1.608V176.925c0-5.551,4.516-10.067,10.067-10.067H735.27          c5.551,0,10.067,4.516,10.067,10.067V470.709z"/>
							</g>
						</g>
					</g>
					<g>
						<g>
							<g>
								<path style="fill:#2E4882;" d="M575.945,553.243h-20.703c-5.551,0-10.067-4.517-10.067-10.068V500.82h1.608v42.355          c0,4.664,3.794,8.46,8.458,8.46h20.703V553.243z"/>
							</g>
						</g>
					</g>
					<g>
						<g>
							<g>
								<rect x="638.925" y="551.635" style="fill:#2E4882;" width="19.162" height="1.608"/>
							</g>
						</g>
					</g>
				</g>
			</g>
			<g>
				<g>
					<g>
						<g>
							<g>
								<path style="fill:#F49B51;" d="M757.2,550.823c0,2.766-20.316,5.018-45.371,5.018c-25.055,0-45.371-2.251-45.371-5.018          c0-0.054,0.011-0.096,0.021-0.15V537.11h90.689v13.53C757.189,550.705,757.2,550.758,757.2,550.823z"/>
							</g>
						</g>
						<g>
							<g>
								<ellipse style="fill:#FCC659;" cx="711.826" cy="537.235" rx="45.369" ry="5.017"/>
							</g>
						</g>
					</g>
					<g>
						<g>
							<g>
								<path style="fill:#F49B51;" d="M767.921,534.46c0,2.766-20.316,5.017-45.371,5.017c-25.055,0-45.371-2.251-45.371-5.017          c0-0.054,0.011-0.096,0.021-0.15v-13.562h90.689v13.53C767.91,534.342,767.921,534.396,767.921,534.46z"/>
							</g>
						</g>
						<g>
							<g>
								<ellipse style="fill:#FCC659;" cx="722.547" cy="520.872" rx="45.369" ry="5.017"/>
							</g>
						</g>
					</g>
					<g>
						<g>
							<g>
								<path style="fill:#F49B51;" d="M757.2,518.097c0,2.766-20.316,5.017-45.371,5.017c-25.055,0-45.371-2.251-45.371-5.017          c0-0.054,0.011-0.096,0.021-0.15v-13.562h90.689v13.53C757.189,517.979,757.2,518.033,757.2,518.097z"/>
							</g>
						</g>
						<g>
							<g>
								<ellipse style="fill:#FCC659;" cx="711.826" cy="504.509" rx="45.369" ry="5.017"/>
							</g>
						</g>
					</g>
					<g>
						<g>
							<g>
								<g>
									<path style="fill:#2E4882;" d="M711.834,556.373c-18.454,0-45.908-1.479-45.908-5.554h1.072           c0,1.564,15.399,4.482,44.836,4.482c1.07,0,2.132-0.004,3.183-0.013l0.008,1.072           C713.972,556.369,712.906,556.373,711.834,556.373z"/>
								</g>
							</g>
						</g>
						<g>
							<g>
								<g>
									<path style="fill:#2E4882;" d="M729.821,555.963l-0.05-1.07c4.594-0.221,8.806-0.521,12.521-0.895l0.107,1.066           C738.665,555.439,734.435,555.742,729.821,555.963z"/>
								</g>
							</g>
						</g>
					</g>
					<g>
						<g>
							<g>
								<g>
									<path style="fill:#2E4882;" d="M693.925,538.804c-17.05-1.552-17.05-3.701-17.05-4.408h1.072           c0,0.522,2.888,2.14,16.074,3.34L693.925,538.804z"/>
								</g>
							</g>
						</g>
						<g>
							<g>
								<g>
									<path style="fill:#2E4882;" d="M722.783,539.949c-5.101,0-10.11-0.093-14.889-0.276l0.042-1.072           c8.535,0.329,17.971,0.367,26.765,0.1l0.031,1.072C730.838,539.89,726.818,539.949,722.783,539.949z"/>
								</g>
							</g>
						</g>
						<g>
							<g>
								<g>
									<path style="fill:#2E4882;" d="M745.995,539.244l-0.071-1.07c4.838-0.318,9.058-0.73,12.542-1.223l0.151,1.062           C755.106,538.509,750.86,538.923,745.995,539.244z"/>
								</g>
							</g>
						</g>
					</g>
					<g>
						<g>
							<g>
								<g>
									<path style="fill:#2E4882;" d="M681.322,508.782c-15.121-1.542-15.121-3.49-15.121-4.222h1.072           c0,0.017,0.385,1.752,14.158,3.157L681.322,508.782z"/>
								</g>
							</g>
						</g>
						<g>
							<g>
								<g>
									<path style="fill:#2E4882;" d="M712.107,510.113c-5.216,0-10.318-0.096-15.161-0.287l0.042-1.072           c4.83,0.191,9.917,0.287,15.119,0.287c9.311,0,18.253-0.31,25.86-0.896l0.082,1.068           C730.415,509.802,721.445,510.113,712.107,510.113z"/>
								</g>
							</g>
						</g>
					</g>
					<g>
						<g>
							<g>
								<path style="fill:#F49B51;" d="M773.281,501.734c0,2.766-20.316,5.017-45.371,5.017c-25.055,0-45.371-2.251-45.371-5.017          c0-0.054,0.011-0.096,0.021-0.15v-13.562h90.689v13.53C773.271,501.616,773.281,501.67,773.281,501.734z"/>
							</g>
						</g>
						<g>
							<g>
								<ellipse style="fill:#FCC659;" cx="727.908" cy="488.146" rx="45.369" ry="5.017"/>
							</g>
						</g>
						<g>
							<g>
								<path style="fill:#F49B51;" d="M764.862,488.146c0,1.863-16.545,3.374-36.954,3.374c-20.409,0-36.955-1.511-36.955-3.374          c0-1.864,16.545-3.374,36.955-3.374C748.317,484.772,764.862,486.283,764.862,488.146z"/>
							</g>
						</g>
					</g>
				</g>
				<g>
					<g>
						<g>
							<path style="fill:#FCC659;" d="M610.186,463.984c-25.298-0.691-46.364,19.262-47.055,44.57         c-0.691,25.298,19.262,46.374,44.57,47.056c25.298,0.691,46.374-19.262,47.055-44.57         C655.446,485.741,635.494,464.675,610.186,463.984z M645.82,510.799c-0.269,9.847-4.357,19.003-11.517,25.778         c-7.15,6.776-16.507,10.365-26.364,10.096c-20.327-0.557-36.422-17.544-35.865-37.88c0.269-9.847,4.348-19.003,11.507-25.778         c6.901-6.536,15.864-10.106,25.337-10.106c0.346,0,0.681,0.01,1.027,0.019c20.001,0.538,35.884,16.987,35.884,36.863         C645.83,510.128,645.83,510.463,645.82,510.799z"/>
						</g>
					</g>
					<g>
						<g>
							<path style="fill:#F49B51;" d="M645.831,509.792c0,0.336,0,0.672-0.01,1.008c-0.269,9.847-4.357,19.003-11.517,25.779         c-7.15,6.776-16.508,10.365-26.365,10.097c-20.328-0.557-36.423-17.544-35.866-37.882         c0.269-9.847,4.348-19.003,11.508-25.779c6.901-6.536,15.865-10.106,25.338-10.106c0.346,0,0.681,0.01,1.027,0.019         C629.947,473.465,645.831,489.915,645.831,509.792z"/>
						</g>
					</g>
					<g>
						<g>
							<g>
								<path style="fill:#FCC659;" d="M606.609,538.009v-6.941c-3.986-0.068-8.109-1.306-10.514-3.023l1.649-4.604          c2.474,1.649,6.047,2.955,9.896,2.955c4.88,0,8.178-2.818,8.178-6.734c0-3.78-2.68-6.117-7.765-8.178          c-7.01-2.75-11.339-5.911-11.339-11.89c0-5.703,4.055-10.033,10.377-11.064v-6.941h4.26v6.666          c4.123,0.137,6.941,1.237,8.934,2.405l-1.719,4.535c-1.443-0.824-4.26-2.336-8.659-2.336c-5.292,0-7.285,3.161-7.285,5.91          c0,3.574,2.543,5.36,8.522,7.834c7.078,2.887,10.652,6.46,10.652,12.576c0,5.429-3.78,10.515-10.858,11.683v7.147H606.609z"/>
							</g>
						</g>
					</g>
					<g>
						<g>
							<path style="fill:#2E4882;" d="M644.315,500.565c-0.077-0.3-0.163-0.599-0.249-0.896         c-2.926-10.114-10.055-18.438-19.576-22.896l0.424-0.906c9.782,4.582,17.107,13.134,20.096,23.465         c0.105,0.368,0.194,0.675,0.274,0.984L644.315,500.565z"/>
						</g>
					</g>
					<g>
						<g>
							<path style="fill:#2E4882;" d="M624.49,476.772c-7.656-3.587-16.374-4.388-24.55-2.262l-0.252-0.967         c8.401-2.188,17.359-1.361,25.226,2.322L624.49,476.772z"/>
						</g>
					</g>
					<g>
						<g>
							<path style="fill:#2E4882;" d="M641.329,528.657l-0.861-0.506c2.452-4.172,4.03-8.684,4.689-13.41l0.99,0.139         C645.47,519.736,643.849,524.372,641.329,528.657z"/>
						</g>
					</g>
					<g>
						<g>
							<g>
								<path style="fill:#2E4882;" d="M638.772,475.713c-3.542-3.103-7.519-5.623-11.823-7.49l0.427-0.984          c4.406,1.912,8.477,4.492,12.102,7.668L638.772,475.713z"/>
							</g>
						</g>
					</g>
					<g>
						<g>
							<g>
								<path style="fill:#2E4882;" d="M634.81,548.284l-0.599-0.89c12.132-8.168,19.612-21.762,20.008-36.364          c0.246-9.074-2.189-17.9-7.045-25.524l0.905-0.576c4.97,7.805,7.465,16.84,7.213,26.129          C654.885,526.007,647.228,539.922,634.81,548.284z"/>
							</g>
						</g>
					</g>
				</g>
			</g>
			<g>
				<g>
					<g>
						<g>
							<path style="fill:#2E4882;" d="M722.897,280.332h-1.072v-20.413c0-2.663-2.166-4.829-4.829-4.829h-91.301v-1.072h91.301         c3.254,0,5.901,2.647,5.901,5.901V280.332z"/>
						</g>
					</g>
				</g>
				<g>
					<g>
						<g>
							<rect x="721.825" y="291.053" style="fill:#2E4882;" width="1.072" height="11.806"/>
						</g>
					</g>
				</g>
				<g>
					<g>
						<g>
							<rect x="595.288" y="254.017" style="fill:#2E4882;" width="18.614" height="1.072"/>
						</g>
					</g>
				</g>
			</g>
		</g>
		<g>
			<g>
				<path style="fill:#F3FAFF;" d="M281.137,143.549c7.417-6.017,14.245-13.268,17.456-22.262c3.211-8.995,2.107-20.002-4.66-26.742      c-5.518-5.495-13.897-7.35-21.635-6.476c-7.738,0.874-14.986,4.157-21.893,7.753c-13.214,6.881-90.073,54.534-63.354,70.228      C212.773,181.159,261.262,159.674,281.137,143.549z"/>
			</g>
		</g>
		<g>
			<g>
				<g>
					<g>
						<path style="fill:#2E4882;" d="M104.4,270.654l-0.919-0.552c10.841-18.082,28.304-30.351,54.956-38.608l0.317,1.024        C132.369,240.693,115.098,252.811,104.4,270.654z"/>
					</g>
				</g>
			</g>
			<g>
				<g>
					<g>
						<path style="fill:#2E4882;" d="M90.517,277.694l-1.007-0.366c13.993-38.462,49.911-50.802,83.2-57.799l0.221,1.049        C139.929,227.515,104.33,239.726,90.517,277.694z"/>
					</g>
				</g>
			</g>
			<g>
				<g>
					<g>
						<path style="fill:#2E4882;" d="M575.109,53.671c-24.595-12.574-45.42-15.96-65.537-10.66l-0.273-1.036        c20.386-5.373,41.453-1.96,66.298,10.741L575.109,53.671z"/>
					</g>
				</g>
			</g>
			<g>
				<g>
					<g>
						<path style="fill:#2E4882;" d="M593.593,55.023c-28.464-18.08-62.472-34.201-98.875-16.668l-0.465-0.966        c36.875-17.758,71.2-1.509,99.916,16.73L593.593,55.023z"/>
					</g>
				</g>
			</g>
		</g>
		<g>
			<g>
				<g>
					<path style="fill:#FCC659;" d="M459.483,103.826c-25.299-0.691-46.365,19.262-47.056,44.57       c-0.691,25.298,19.262,46.374,44.57,47.055c25.298,0.691,46.374-19.262,47.055-44.57       C504.744,125.583,484.791,104.517,459.483,103.826z M495.118,150.642c-0.269,9.847-4.357,19.003-11.517,25.778       c-7.15,6.776-16.507,10.365-26.364,10.096c-20.327-0.557-36.422-17.544-35.865-37.88c0.269-9.847,4.348-19.003,11.507-25.778       c6.9-6.536,15.864-10.106,25.337-10.106c0.346,0,0.681,0.01,1.027,0.019c20.001,0.537,35.884,16.987,35.884,36.863       C495.128,149.97,495.128,150.306,495.118,150.642z"/>
				</g>
			</g>
			<g>
				<g>
					<path style="fill:#F49B51;" d="M495.129,149.634c0,0.336,0,0.672-0.01,1.008c-0.269,9.847-4.357,19.003-11.517,25.779       c-7.15,6.776-16.508,10.365-26.365,10.097c-20.328-0.557-36.423-17.544-35.866-37.882c0.269-9.847,4.348-19.003,11.507-25.779       c6.901-6.536,15.865-10.106,25.338-10.106c0.346,0,0.682,0.01,1.027,0.019C479.245,113.307,495.129,129.758,495.129,149.634z"/>
				</g>
			</g>
			<g>
				<g>
					<g>
						<path style="fill:#FCC659;" d="M455.906,177.852v-6.941c-3.986-0.068-8.109-1.306-10.514-3.023l1.65-4.604        c2.474,1.649,6.047,2.955,9.896,2.955c4.88,0,8.178-2.818,8.178-6.734c0-3.78-2.68-6.117-7.765-8.178        c-7.01-2.749-11.339-5.911-11.339-11.89c0-5.703,4.055-10.033,10.377-11.064v-6.941h4.26v6.666        c4.123,0.137,6.941,1.237,8.934,2.405l-1.719,4.535c-1.443-0.824-4.26-2.336-8.659-2.336c-5.292,0-7.285,3.161-7.285,5.91        c0,3.574,2.543,5.36,8.522,7.834c7.078,2.887,10.652,6.46,10.652,12.576c0,5.429-3.78,10.515-10.858,11.683v7.147H455.906z"/>
					</g>
				</g>
			</g>
			<g>
				<g>
					<g>
						<path style="fill:#2E4882;" d="M493.678,140.483c-0.082-0.316-0.173-0.63-0.264-0.944        c-2.912-10.067-10.041-18.391-19.562-22.851l0.424-0.905c9.783,4.581,17.107,13.134,20.095,23.464        c0.097,0.337,0.19,0.659,0.274,0.984L493.678,140.483z"/>
					</g>
				</g>
				<g>
					<g>
						<path style="fill:#2E4882;" d="M473.852,116.688c-7.658-3.586-16.376-4.389-24.55-2.26l-0.252-0.968        c8.4-2.187,17.358-1.362,25.226,2.323L473.852,116.688z"/>
					</g>
				</g>
				<g>
					<g>
						<path style="fill:#2E4882;" d="M422.276,159.047c-2.514-9.672-1.113-19.737,3.944-28.341l0.862,0.507        c-4.922,8.373-6.285,18.169-3.839,27.582L422.276,159.047z"/>
					</g>
				</g>
			</g>
			<g>
				<g>
					<g>
						<g>
							<path style="fill:#2E4882;" d="M488.069,116.388c-3.542-3.104-7.52-5.624-11.822-7.491l0.426-0.983         c4.405,1.91,8.477,4.49,12.103,7.668L488.069,116.388z"/>
						</g>
					</g>
				</g>
				<g>
					<g>
						<g>
							<path style="fill:#2E4882;" d="M484.108,188.958l-0.599-0.889c12.133-8.169,19.612-21.763,20.009-36.365         c0.246-9.074-2.19-17.9-7.045-25.524l0.905-0.576c4.97,7.806,7.464,16.841,7.213,26.129         C504.184,166.681,496.527,180.597,484.108,188.958z"/>
						</g>
					</g>
				</g>
			</g>
			<g>
				<g>
					<g>
						<g>
							<path style="fill:#FCB47E;" d="M451.878,248.366l4.06-17.4l16.576-6.901l2.951,24.301c0,0-2.459,15.787-17.707,21.443         C442.509,275.466,451.878,248.366,451.878,248.366z"/>
						</g>
					</g>
				</g>
			</g>
			<g>
				<g>
					<g>
						<g>
							<path style="fill:#FCB47E;" d="M445.355,202.617c0,0-5.902,32.709,3.689,32.955c9.591,0.246,17.461-3.443,19.429-5.656         c1.967-2.213,3.443-13.035,3.443-13.035s1.23-14.018-4.673-16.724C461.341,197.452,448.552,192.78,445.355,202.617z"/>
						</g>
					</g>
				</g>
			</g>
			<g>
				<g>
					<g>
						<g>
							<path style="fill:#374263;" d="M476.914,223.426c-1.885,3.48-3.746,6.887-3.746,6.887c-2.803-0.44-5.904-3.943-6.452-6.96         c0,0-8.816-0.824-9.125-11.735c0,0-15.311,0.102-15.674-13.187c-0.375-13.278,14.936-9.859,20.013-5.804         c5.066,4.055,8.144,6.122,16.038,8.666C486.27,203.975,479.332,218.962,476.914,223.426z"/>
						</g>
					</g>
				</g>
			</g>
			<g>
				<g>
					<g>
						<g>
							<g>
								<g>
									<path style="fill:#FCB47E;" d="M469.752,539.372l-1.886-19.332h-20.432l4.438,18.771c0,0,2.367,6.294,9.235,6.062           C467.713,544.65,469.752,539.372,469.752,539.372z"/>
								</g>
							</g>
						</g>
					</g>
				</g>
			</g>
			<g>
				<g>
					<g>
						<g>
							<g>
								<path style="fill:#FCB47E;" d="M570.361,478.901l-15.693-11.445l-13.585,15.261l20.107,10.195c0,0,2.493,0.493,7.532-3.896          C573.705,484.675,570.361,478.901,570.361,478.901z"/>
							</g>
						</g>
					</g>
				</g>
			</g>
			<g>
				<g>
					<g>
						<g>
							<g>
								<g>
									<path style="fill:#3F5A9F;" d="M486.95,526.064c-11.825,4.471-26.942,3.249-43.227,0c-0.472-1.136-0.943-2.273-1.394-3.42           c-31.037-78.445-9.059-192.388-9.059-192.388h48.813l-1.104,37.663c-2.144,9.949-3.613,20.027-4.556,30.019           C470.226,463.636,486.95,526.064,486.95,526.064z"/>
								</g>
							</g>
						</g>
					</g>
				</g>
				<g>
					<g>
						<path style="fill:#385087;" d="M486.94,526.032c-0.761-1.533-28.561-58.022-20.284-121.747l8.813,7.097        C472.488,471.044,486.543,524.531,486.94,526.032z"/>
					</g>
				</g>
			</g>
			<g>
				<g>
					<g>
						<g>
							<g>
								<g>
									<path style="fill:#3F5A9F;" d="M565.825,458.469c-4.481,12.576-9.252,22.343-14.441,28.046           c-2.412,2.648-4.91,4.428-7.515,5.2c-7.483-3.838-14.334-7.998-20.595-12.415c-0.858-0.59-1.694-1.19-2.53-1.801           c-1.115-0.815-2.208-1.64-3.27-2.466c-0.493-0.375-0.976-0.75-1.447-1.136c-0.965-0.751-1.908-1.522-2.83-2.284           c-0.826-0.686-1.64-1.383-2.434-2.069c-4.213-3.645-8.094-7.397-11.675-11.246c-0.343-0.365-0.686-0.74-1.018-1.104           c-0.247-0.268-0.493-0.547-0.74-0.815l-0.011-0.011c-49.231-54.72-40.193-126.111-40.193-126.111h42.82           C503.611,398.71,565.825,458.469,565.825,458.469z"/>
								</g>
							</g>
						</g>
					</g>
				</g>
			</g>
			<g>
				<g>
					<g>
						<g>
							<path style="fill:#FCB47E;" d="M509.546,182.049c-3.655-2.666-6.202-4.138-6.817-4.579c-0.777-0.557-0.961-1.942-1.87-3.336         c-2.091-3.206-6.439-8.875-10.934-10.451c-0.577-0.205-1.023,0.406-0.401,1.067c1.096,1.214,3.177,2.952,2.857,3.243         c-0.69,0.58-5.557-5.275-6.93-3.917c-1.032,1.028,6.016,6.25,5.741,6.579c-0.551,0.658-5.855-5.325-7.147-3.973         c-1.227,1.284,5.143,4.639,4.867,5.203c-0.287,0.583-4.701-3.074-5.57-2.243c-1.318,1.259,6.636,6.192,6.423,6.922         c-0.285,1.185-4.396-1.286-5.007,0.108c-0.601,1.308,5.16,3.783,6.249,4.33c2.516,1.263,4.349,0.715,6.362,3.851         c1.106,1.723,2.202,3.438,3.281,5.166L509.546,182.049z"/>
						</g>
					</g>
				</g>
			</g>
			<g>
				<g>
					<g>
						<g>
							<path style="fill:#FCB47E;" d="M408.696,185.958c3.349-3.041,5.724-4.777,6.289-5.282c0.713-0.637,0.748-2.034,1.503-3.517         c1.737-3.411,5.454-9.513,9.755-11.56c0.552-0.266,1.061,0.294,0.513,1.018c-0.96,1.324-2.843,3.275-2.494,3.53         c0.748,0.503,4.961-5.839,6.472-4.635c1.136,0.912-5.314,6.857-5.005,7.155c0.618,0.595,5.253-5.92,6.681-4.714         c1.357,1.145-4.617,5.162-4.283,5.693c0.348,0.549,4.345-3.559,5.299-2.825c1.445,1.111-5.936,6.866-5.647,7.569         c0.41,1.148,4.234-1.748,4.99-0.427c0.738,1.236-4.726,4.313-5.751,4.973c-2.366,1.525-4.247,1.176-5.914,4.509         c-0.916,1.832-1.822,3.653-2.71,5.487L408.696,185.958z"/>
						</g>
					</g>
				</g>
			</g>
			<g>
				<g>
					<g>
						<path style="fill:#385087;" d="M500.384,335.842c-3.817,2.434-10.507,6.368-18.751,9.778        c-7.387,3.045-16.028,5.682-24.98,6.465c-8.695,0.761-17.69-0.236-26.127-4.299c0.536-3.999,1.051-7.397,1.479-10.11        c7.741,4.095,16.135,5.821,24.465,6.057c8.791,0.257,17.507-1.147,25.312-3.184c7.13-1.855,13.498-4.235,18.44-6.358        C500.266,334.738,500.319,335.295,500.384,335.842z"/>
					</g>
				</g>
			</g>
			<g>
				<g>
					<g>
						<path style="fill:#6D92F0;" d="M422.491,330.653v-53.867c0,0-48.407-8.216-38.904-55.09        c6.038-29.783,27.305-40.416,27.305-40.416l11.793,9.473c0,0-25.065,38.313,7.927,51.62c0,0,18.56-0.58,23.393,4.64        c0,0,10.633,8.507,21.846-5.607c0,0,11.407-4.447,21.13-1.834c8.002,2.15,18.31-17.693-0.83-51.333l11.987-10.827        c0,0,70.18,67.473,1.353,100.919l-3.842,53.819C505.648,332.151,452.375,362.362,422.491,330.653z"/>
					</g>
				</g>
			</g>
			<g>
				<g>
					<g>
						<circle style="fill:#FCB47E;" cx="464.589" cy="221.493" r="3.818"/>
					</g>
				</g>
			</g>
			<g>
				<g>
					<g>
						<g>
							<g>
								<g>
									<path style="fill:#FFFFFF;" d="M475.01,424.726c-8.995-17.463-14.884-36.885-17.502-57.728l0.845-0.107           c2.606,20.744,8.465,40.071,17.415,57.445L475.01,424.726z"/>
								</g>
							</g>
						</g>
					</g>
				</g>
			</g>
			<g>
				<g>
					<g>
						<path style="fill:#FFFFFF;" d="M498.016,363.061c-13.549,0-17.884-11.772-17.927-11.893l0.803-0.285        c0.042,0.118,4.283,11.673,17.76,11.317l0.023,0.852C498.454,363.057,498.233,363.061,498.016,363.061z"/>
					</g>
				</g>
			</g>
			<g>
				<g>
					<g>
						<path style="fill:#2E4882;" d="M460.764,254.031c-0.254,0-0.507-0.012-0.759-0.035c-6.089-0.562-9.165-7.674-9.293-7.977        l0.784-0.332c0.029,0.07,3.01,6.949,8.591,7.461c4.689,0.434,9.868-3.599,15.408-11.977l0.711,0.47        C470.765,249.868,465.574,254.031,460.764,254.031z"/>
					</g>
				</g>
			</g>
			<g>
				<g>
					<path style="fill:#608BE2;" d="M422.496,276.791c0,0-48.416-8.223-38.906-55.095c0.515-2.562,1.147-4.996,1.876-7.28       c0.118-0.129,0.247-0.257,0.365-0.375c-0.804,10.582-1.182,19.849,3.506,29.869       C399.14,264.866,423.164,276.735,422.496,276.791z"/>
				</g>
			</g>
			<g>
				<g>
					<path style="fill:#608BE2;" d="M509.486,278.335l-3.838,53.819c0,0-11.064,6.283-25.945,10.11       c2.573-1.951,13.4-18.508,15.215-26.875c3.254-15.006,3.658-23.646,4.076-39.642c16.017-4.16,34.273-18.271,40.554-41.819       C540.973,249.988,534.155,266.338,509.486,278.335z"/>
				</g>
			</g>
			<g>
				<g>
					<g>
						<path style="fill:#2E4882;" d="M458.302,339.49c-0.15,0-0.234-0.001-0.247-0.001l0.017-0.852        c0.227-0.002,22.729,0.315,42.206-11.562l0.444,0.728C482.133,339.137,460.827,339.49,458.302,339.49z"/>
					</g>
				</g>
			</g>
			<g>
				<g>
					<path style="fill:#385087;" d="M551.383,486.515c-2.412,2.648-4.91,4.428-7.515,5.2c-7.483-3.838-14.334-7.998-20.595-12.415       c-0.858-0.59-1.694-1.19-2.53-1.801c-1.115-0.815-2.208-1.64-3.27-2.466c-0.493-0.375-0.976-0.75-1.447-1.136       c-0.965-0.751-1.908-1.522-2.83-2.284c-0.826-0.686-1.64-1.383-2.434-2.069c-4.213-3.645-8.094-7.397-11.675-11.246       c-0.343-0.365-0.686-0.74-1.018-1.104c-0.247-0.268-0.493-0.547-0.74-0.815C526.607,480.575,545.337,485.518,551.383,486.515z"/>
				</g>
			</g>
			<g>
				<g>
					<path style="fill:#FFFFFF;" d="M559.479,456.756c-20.611-13.384-33.707-37.565-33.837-37.808l0.709-0.379       c0.129,0.241,13.132,24.244,33.566,37.513L559.479,456.756z"/>
				</g>
			</g>
			<g>
				<g>
					<g>
						<g>
							<g>
								<g>
									<g>
										<path style="fill:#374263;" d="M472.338,554.765h-46.346c-1.614,0-2.904-1.366-2.782-2.975            c0.001-0.019,0.003-0.039,0.004-0.059c0.032-0.354,0.075-0.718,0.129-1.083c0.161-1.233,0.493-2.466,1.072-3.238            c2.198-2.916,6.465-4.245,14.066-7.258c4.771-1.898,8.823-4.417,10.603-5.596c0.579-0.386,1.329-0.289,1.833,0.193            c9.167,8.963,14.795,7.054,16.478,3.356c1.286-2.82,3.109-2.23,3.613-1.404c1.544,2.584,2.391,10.153,2.734,13.948            c0.043,0.407,0.075,0.783,0.096,1.083c0.054,0.708,0.086,1.136,0.086,1.136            C474.096,553.853,473.335,554.765,472.338,554.765z"/>
									</g>
								</g>
							</g>
						</g>
					</g>
				</g>
				<g>
					<g>
						<g>
							<path style="fill:#FFFFFF;" d="M441.103,545.014c-3.291-1.597-2.802-4.996-2.797-5.031l0.795,0.122         c-0.017,0.116-0.393,2.852,2.353,4.184L441.103,545.014z"/>
						</g>
					</g>
					<g>
						<g>
							<path style="fill:#FFFFFF;" d="M437.036,546.38c-3.027-1.709-2.705-4.66-2.69-4.785l0.798,0.095         c-0.012,0.104-0.261,2.551,2.287,3.99L437.036,546.38z"/>
						</g>
					</g>
					<g>
						<g>
							<path style="fill:#FFFFFF;" d="M463.195,544.36c-3.101,0-5.908-1.413-5.954-1.438l0.367-0.715         c0.071,0.038,7.104,3.571,10.717-0.93l0.627,0.503C467.365,543.759,465.217,544.36,463.195,544.36z"/>
						</g>
					</g>
				</g>
				<g>
					<g>
						<g>
							<rect x="441.18" y="551.148" style="fill:#FFFFFF;" width="27.008" height="0.804"/>
						</g>
					</g>
					<g>
						<g>
							<rect x="431.326" y="551.148" style="fill:#FFFFFF;" width="6.387" height="0.804"/>
						</g>
					</g>
				</g>
			</g>
			<g>
				<g>
					<g>
						<g>
							<g>
								<g>
									<g>
										<path style="fill:#374263;" d="M584.179,481.69l-22.644,40.438c-0.789,1.409-2.613,1.867-3.957,0.972            c-0.014-0.009-0.027-0.018-0.041-0.027c-0.3-0.204-0.59-0.418-0.89-0.643c-0.986-0.75-1.908-1.64-2.294-2.52            c-1.469-3.345-0.547-7.708,0.536-15.824c0.675-5.092,0.45-9.842,0.3-11.986c-0.054-0.686,0.397-1.297,1.061-1.501            c12.297-3.624,13.38-9.456,10.978-12.737c-1.833-2.498-0.429-3.806,0.536-3.838c3.013-0.086,10.024,2.862,13.498,4.428            c0.386,0.161,0.729,0.311,1.008,0.439c0.643,0.3,1.029,0.483,1.029,0.483C584.254,479.707,584.661,480.811,584.179,481.69            z"/>
									</g>
								</g>
							</g>
						</g>
					</g>
				</g>
				<g>
					<g>
						<g>
							<path style="fill:#FFFFFF;" d="M556.193,504.603c-0.774,0-1.328-0.111-1.387-0.124l0.165-0.787         c0.034,0.008,3.338,0.663,4.985-1.476l0.637,0.49C559.372,504.294,557.479,504.603,556.193,504.603z"/>
						</g>
					</g>
					<g>
						<g>
							<path style="fill:#FFFFFF;" d="M555.828,508.984c-0.773,0-1.327-0.111-1.386-0.124l0.165-0.787         c0.032,0.008,3.336,0.663,4.984-1.476l0.637,0.49C559.005,508.675,557.114,508.984,555.828,508.984z"/>
						</g>
					</g>
					<g>
						<g>
							<path style="fill:#FFFFFF;" d="M567.284,489.113l-0.521-0.611c0.06-0.051,5.997-5.218,3.205-10.269l0.704-0.389         C573.781,483.47,567.35,489.058,567.284,489.113z"/>
						</g>
					</g>
				</g>
				<g>
					<g>
						<g>
							
								<rect x="558.802" y="496.091" transform="matrix(0.4792 -0.8777 0.8777 0.4792 -137.7212 760.8821)" style="fill:#FFFFFF;" width="27.008" height="0.804"/>
						</g>
					</g>
					<g>
						<g>
							
								<rect x="559.456" y="513.794" transform="matrix(0.4792 -0.8777 0.8777 0.4792 -158.2877 761.6262)" style="fill:#FFFFFF;" width="6.386" height="0.804"/>
						</g>
					</g>
				</g>
			</g>
			<g>
				<g>
					<g>
						<path style="fill:#2E4882;" d="M430.464,242.889c-0.418-0.119-10.31-3.019-15.447-12.471        c-3.544-6.52-3.901-14.508-1.061-23.739l1.025,0.315c-2.751,8.94-2.424,16.645,0.972,22.901        c4.914,9.054,14.706,11.935,14.805,11.963L430.464,242.889z"/>
					</g>
				</g>
			</g>
			<g>
				<g>
					<path style="fill:#374263;" d="M455.555,212.242c-3.73,0-9.598-1.592-12.668-5.424c-1.901-2.372-3.45-6.56-0.033-13.035       l0.711,0.375c-2.58,4.889-2.597,8.979-0.051,12.157c3.559,4.441,11.069,5.707,13.97,4.915l0.211,0.776       C457.129,212.161,456.396,212.242,455.555,212.242z"/>
				</g>
			</g>
			<g>
				<g>
					<path style="fill:#374263;" d="M452.107,213.019c-2.576,0-5.665-0.708-9.027-2.927l0.443-0.671       c8.786,5.8,15.526,0.798,15.593,0.746l0.488,0.64C459.558,210.84,456.623,213.019,452.107,213.019z"/>
				</g>
			</g>
		</g>
		<g>
			<g>
				<g>
					<g>
						<g>
							<g>
								<g>
									<path style="fill:#9AADE5;" d="M66.358,345.808c0.007,0.302,0.015,0.597,0.022,0.899           c0.848,36.899,6.132,65.419,13.7,87.461l19.603,10.811l-15.741-1.599l-0.45-0.044c9.757,24.15,22.3,39.427,33.9,49.066           c7.215,6.013,14.068,9.838,19.654,12.255c0.368,0.162,0.73,0.317,1.091,0.464c0.899,0.376,1.769,0.707,2.594,1.01h10.472           c0.118-0.494,0.229-0.98,0.332-1.474c0.074-0.31,0.14-0.619,0.199-0.929c0.096-0.405,0.177-0.818,0.258-1.223           c9.853-48.204-7.686-85.324-29.419-111.301c-0.059-0.088-0.133-0.169-0.214-0.258c-7.561-9.013-15.631-16.684-23.214-23           l-4.002,11.997l-1.525-16.434c-13.169-10.221-23.98-16.021-26.633-17.385C66.571,345.911,66.358,345.808,66.358,345.808z"/>
								</g>
							</g>
						</g>
					</g>
				</g>
			</g>
			<g>
				<g>
					<g>
						<g>
							<g>
								<g>
									<g>
										<polygon style="fill:#FFFFFF;" points="65.996,345.999 66.38,346.707 90.176,390.489 90.603,391.263 97.088,403.201             97.31,403.599 117.996,441.655 118.025,441.707 151.733,503.728 152.242,504.657 153.045,506.131 153.959,506.131             153.163,504.657 151.991,502.505 118.725,441.302 118.106,440.167 66.984,346.125 66.704,345.609           "/>
									</g>
								</g>
							</g>
						</g>
					</g>
				</g>
			</g>
			<g>
				<g>
					<g>
						<g>
							<g>
								<g>
									
										<rect x="83.116" y="379.099" transform="matrix(0.5228 -0.8524 0.8524 0.5228 -297.1028 259.751)" style="fill:#FFFFFF;" width="0.703" height="32.319"/>
								</g>
							</g>
						</g>
					</g>
				</g>
			</g>
			<g>
				<g>
					<g>
						<g>
							<g>
								<g>
									
										<rect x="79.502" y="371.894" transform="matrix(0.5228 -0.8524 0.8524 0.5228 -289.7082 251.5649)" style="fill:#FFFFFF;" width="0.703" height="25.333"/>
								</g>
							</g>
						</g>
					</g>
				</g>
			</g>
			<g>
				<g>
					<g>
						<g>
							<g>
								<g>
									<polygon style="fill:#FFFFFF;" points="121.286,444.845 125.26,394.323 124.484,394.265 120.509,444.788          "/>
								</g>
							</g>
						</g>
					</g>
				</g>
			</g>
			<g>
				<g>
					<g>
						<g>
							<g>
								<g>
									<path style="fill:#BAC8F3;" d="M156.214,516.205c0,0-24.141,12.991-60.456-6.164l11.136-6.017l-18.6,1.724           c-14.248-8.896-30.101-22.762-46.917-43.997l4.25-2.292l-5.639,0.519c-2.837-3.632-5.702-7.477-8.591-11.547           c0,0,10.293-1.459,25.166-0.522l8.126,9.879l-2.651-9.431C92.51,451.362,137.347,464.898,156.214,516.205z"/>
								</g>
							</g>
						</g>
					</g>
				</g>
			</g>
			<g>
				<g>
					<g>
						<g>
							<g>
								<g>
									<g>
										
											<rect x="94.287" y="409.885" transform="matrix(0.4588 -0.8885 0.8885 0.4588 -376.2455 344.511)" style="fill:#FFFFFF;" width="0.793" height="142.456"/>
									</g>
								</g>
							</g>
						</g>
					</g>
				</g>
			</g>
			<g>
				<g>
					<g>
						<g>
							<g>
								<g>
									
										<rect x="46.769" y="466.741" transform="matrix(0.988 -0.1544 0.1544 0.988 -71.4503 14.1878)" style="fill:#FFFFFF;" width="17.701" height="0.737"/>
								</g>
							</g>
						</g>
					</g>
				</g>
			</g>
			<g>
				<g>
					<g>
						<g>
							<g>
								<g>
									
										<rect x="52.448" y="472.051" transform="matrix(0.974 -0.2266 0.2266 0.974 -105.4346 26.5441)" style="fill:#FFFFFF;" width="20.857" height="0.737"/>
								</g>
							</g>
						</g>
					</g>
				</g>
			</g>
		</g>
		<g>
			<g>
				<g>
					<path style="fill:#6D92F0;" d="M365.934,538.547H144.972c-5.414,0-9.802-4.389-9.802-9.802V378.32       c0-5.414,4.389-9.802,9.802-9.802h220.962c5.414,0,9.802,4.389,9.802,9.802v150.425       C375.736,534.158,371.348,538.547,365.934,538.547z"/>
				</g>
			</g>
		</g>
		<g>
			<g>
				<g>
					<g>
						<path style="fill:#2E4882;" d="M368.441,386.169v134.737c0,5.703-4.623,10.327-10.327,10.327h-15.586V384.569H148.446        c-2.41,0-4.364-1.954-4.364-4.363l0,0c0-2.41,1.954-4.363,4.364-4.363h209.668        C363.817,375.842,368.441,380.466,368.441,386.169z"/>
					</g>
				</g>
			</g>
		</g>
		<g>
			<g>
				<g>
					<path style="fill:#F49B51;" d="M309.488,370.73c0.213,0.26,0.425,0.52,0.63,0.786c6.025,7.794,8.654,17.47,7.4,27.248       c-1.247,9.772-6.22,18.473-14.021,24.504c-16.09,12.435-39.303,9.471-51.744-6.627c-6.025-7.794-8.662-17.464-7.407-27.242       c1.206-9.428,5.886-17.866,13.22-23.861c0.267-0.219,0.534-0.424,0.807-0.635C274.198,352.659,296.907,355.341,309.488,370.73z       "/>
				</g>
			</g>
		</g>
		<g>
			<g>
				<path style="fill:#FCC659;" d="M278.615,422.78v-6.941c-3.986-0.068-8.109-1.306-10.514-3.023l1.65-4.604      c2.474,1.649,6.047,2.955,9.896,2.955c4.88,0,8.178-2.818,8.178-6.734c0-3.78-2.68-6.117-7.765-8.178      c-7.01-2.749-11.339-5.911-11.339-11.89c0-5.703,4.055-10.033,10.377-11.064v-6.941h4.26v6.666      c4.123,0.137,6.941,1.237,8.934,2.405l-1.718,4.535c-1.443-0.824-4.26-2.336-8.659-2.336c-5.291,0-7.285,3.161-7.285,5.91      c0,3.574,2.543,5.36,8.522,7.834c7.078,2.886,10.652,6.46,10.652,12.576c0,5.429-3.78,10.515-10.858,11.683v7.147H278.615z"/>
			</g>
		</g>
		<g>
			<g>
				<g>
					<path style="fill:#FCC659;" d="M292.534,349.746c-24.482-6.412-49.525,8.242-55.939,32.734       c-6.412,24.482,8.24,49.534,32.734,55.939c24.482,6.412,49.534-8.24,55.939-32.734       C331.68,381.203,317.026,356.159,292.534,349.746z M316.621,403.424c-2.495,9.529-8.554,17.519-17.064,22.494       c-8.501,4.977-18.428,6.35-27.967,3.853c-19.671-5.153-31.493-25.348-26.337-45.029c2.495-9.529,8.545-17.521,17.055-22.496       c8.203-4.8,17.743-6.244,26.969-4.095c0.336,0.078,0.661,0.164,0.996,0.252c19.357,5.06,31.095,24.684,26.587,44.042       C316.783,402.772,316.706,403.099,316.621,403.424z"/>
				</g>
			</g>
		</g>
		<g>
			<path style="fill:#FCC659;" d="M213.766,314.031c-25.298-0.691-46.364,19.262-47.055,44.57     c-0.691,25.298,19.262,46.374,44.57,47.055c25.299,0.691,46.374-19.262,47.056-44.57     C259.027,335.788,239.074,314.722,213.766,314.031z M249.4,360.846c-0.269,9.847-4.357,19.003-11.517,25.778     c-7.15,6.776-16.507,10.365-26.364,10.096c-20.327-0.557-36.422-17.544-35.865-37.88c0.269-9.847,4.348-19.003,11.507-25.778     c6.9-6.536,15.864-10.106,25.337-10.106c0.345,0,0.681,0.01,1.027,0.019c20.001,0.537,35.884,16.987,35.884,36.863     C249.41,360.175,249.41,360.51,249.4,360.846z"/>
		</g>
		<g>
			<g>
				<g>
					<path style="fill:#F49B51;" d="M241.075,336.485c0.213,0.26,0.425,0.52,0.63,0.786c6.025,7.794,8.654,17.47,7.4,27.248       c-1.247,9.772-6.22,18.473-14.021,24.504c-16.09,12.435-39.303,9.471-51.744-6.627c-6.025-7.794-8.662-17.464-7.407-27.242       c1.206-9.428,5.886-17.866,13.22-23.861c0.268-0.219,0.534-0.424,0.807-0.635C205.785,318.415,228.494,321.097,241.075,336.485       z"/>
				</g>
			</g>
		</g>
		<g>
			<g>
				<path style="fill:#FCC659;" d="M210.189,388.056v-6.941c-3.986-0.068-8.109-1.306-10.514-3.023l1.65-4.604      c2.474,1.649,6.047,2.955,9.896,2.955c4.88,0,8.178-2.818,8.178-6.734c0-3.78-2.68-6.117-7.765-8.178      c-7.01-2.75-11.339-5.911-11.339-11.89c0-5.703,4.055-10.033,10.377-11.064v-6.941h4.26v6.666      c4.123,0.137,6.941,1.237,8.934,2.405l-1.718,4.535c-1.443-0.824-4.26-2.336-8.659-2.336c-5.292,0-7.285,3.161-7.285,5.91      c0,3.574,2.543,5.36,8.522,7.834c7.078,2.886,10.652,6.46,10.652,12.576c0,5.429-3.78,10.515-10.858,11.683v7.147H210.189z"/>
			</g>
		</g>
		<g>
			<path style="fill:#2E4882;" d="M242.352,326.063c-3.541-3.103-7.519-5.623-11.823-7.49l0.426-0.984     c4.406,1.911,8.478,4.49,12.104,7.668L242.352,326.063z"/>
		</g>
		<g>
			<path style="fill:#2E4882;" d="M238.39,398.634l-0.599-0.89c12.133-8.168,19.612-21.763,20.008-36.365     c0.247-9.072-2.19-17.899-7.045-25.524l0.905-0.576c4.97,7.806,7.464,16.842,7.212,26.129     C258.467,376.356,250.81,390.272,238.39,398.634z"/>
		</g>
		<g>
			<path style="fill:#2E4882;" d="M247.55,350.438c-0.081-0.311-0.17-0.621-0.259-0.931c-2.915-10.08-10.044-18.403-19.566-22.862     l0.424-0.906c9.783,4.582,17.108,13.134,20.096,23.465c0.1,0.346,0.191,0.663,0.274,0.984L247.55,350.438z"/>
		</g>
		<g>
			<path style="fill:#2E4882;" d="M227.724,326.645c-7.657-3.587-16.374-4.389-24.55-2.262l-0.252-0.967     c8.4-2.188,17.358-1.361,25.225,2.322L227.724,326.645z"/>
		</g>
		<g>
			<path style="fill:#2E4882;" d="M244.564,378.529l-0.862-0.506c2.452-4.172,4.03-8.684,4.689-13.409l0.99,0.139     C248.704,369.609,247.083,374.244,244.564,378.529z"/>
		</g>
		<g>
			<g>
				<g>
					<path style="fill:#6D92F0;" d="M350.561,552.619H144.672c-5.248,0-9.503-4.255-9.503-9.503V394.242       c0-5.248,4.255-9.503,9.503-9.503h205.889c5.248,0,9.503,4.254,9.503,9.503v148.874       C360.064,548.364,355.81,552.619,350.561,552.619z"/>
				</g>
			</g>
		</g>
		<g>
			<g>
				<g>
					<path style="fill:#2E4882;" d="M221.035,546.018h-67.643c-5.091,0-9.232-4.142-9.232-9.232v-13.019h1.072v13.019       c0,4.5,3.661,8.16,8.16,8.16h67.643V546.018z"/>
				</g>
			</g>
			<g>
				<g>
					<rect x="237.459" y="544.946" style="fill:#2E4882;" width="20.849" height="1.072"/>
				</g>
			</g>
			<g>
				<g>
					<path style="fill:#2E4882;" d="M351.074,418.518h-1.072v-17.946c0-4.5-3.661-8.16-8.16-8.16h-88.325v-1.072h88.325       c5.091,0,9.232,4.142,9.232,9.232V418.518z"/>
				</g>
			</g>
			<g>
				<g>
					<rect x="217.717" y="391.34" style="fill:#2E4882;" width="19.923" height="1.072"/>
				</g>
			</g>
			<g>
				<g>
					<rect x="144.159" y="484.196" style="fill:#2E4882;" width="1.072" height="25.338"/>
				</g>
			</g>
		</g>
		<g>
			<g>
				<g>
					<g>
						<path style="fill:#3F5A9F;" d="M375.463,434.207v47.44c0,5.961-4.824,10.785-10.785,10.785h-41.04        c-13.122,0-23.758-10.635-23.758-23.758c0-6.561,2.659-12.501,6.958-16.8c4.299-4.299,10.238-6.958,16.8-6.958h41.04        c0.3,0,0.6,0.011,0.901,0.043C371.121,444.499,375.463,439.857,375.463,434.207z"/>
					</g>
				</g>
			</g>
			<g>
				<g>
					<g>
						<g>
							<g>
								
									<ellipse transform="matrix(0.7071 -0.7071 0.7071 0.7071 -237.2519 364.5815)" style="fill:#FFFFFF;" cx="321.463" cy="468.679" rx="11.086" ry="11.086"/>
							</g>
						</g>
					</g>
				</g>
				<g>
					<g>
						<g>
							<g>
								<path style="fill:#2E4882;" d="M321.463,480.301v-1.072c5.818,0,10.55-4.733,10.55-10.55c0-5.817-4.733-10.55-10.55-10.55          v-1.072c6.409,0,11.622,5.214,11.622,11.622S327.871,480.301,321.463,480.301z"/>
							</g>
						</g>
					</g>
					<g>
						<g>
							<g>
								<path style="fill:#2E4882;" d="M310.913,468.679h-1.072c0-3.104,1.209-6.023,3.404-8.218l0.758,0.758          C312.01,463.211,310.913,465.86,310.913,468.679z"/>
							</g>
						</g>
					</g>
				</g>
			</g>
		</g>
		<g>
			<g>
				<g>
					<g>
						<g>
							<g>
								<g>
									<path style="fill:#2E4882;" d="M130.79,477.778c-5.75-5.441-12.29-10.222-19.437-14.207l0.522-0.936           c7.225,4.029,13.837,8.862,19.652,14.365L130.79,477.778z"/>
								</g>
							</g>
						</g>
						<g>
							<g>
								<g>
									<path style="fill:#2E4882;" d="M99.637,457.943c-3.898-1.597-8.01-3.025-12.223-4.243l0.298-1.03           c4.25,1.23,8.398,2.671,12.331,4.281L99.637,457.943z"/>
								</g>
							</g>
						</g>
					</g>
				</g>
			</g>
		</g>
		<g>
			<g>
				<path style="fill:#7D9EF2;" d="M366.33,160.452c-17.377-4.746-35.916-5.563-53.59-1.862c-8.837,1.803-17.477,4.604-25.635,8.453      c-8.155,3.836-15.935,8.521-22.972,14.169c-7.048,5.622-13.496,12.017-19.059,19.123c-5.548,7.115-10.271,14.872-14.04,23.069      c-0.939,2.049-1.772,4.147-2.64,6.228c-0.744,2.127-1.58,4.225-2.242,6.379c-1.363,4.296-2.553,8.648-3.409,13.077      c-0.425,2.214-0.822,4.434-1.116,6.67c-0.077,0.559-0.162,1.116-0.221,1.677l-0.07,0.601l-0.043,0.371      c-0.054,0.495-0.122,0.989-0.164,1.485l-8.352-0.845c3.512,8.901,7.993,16.978,13.156,24.056      c3.557-8.02,7.99-15.203,13.02-21.409l-8.352-0.845c0.038-0.455,0.102-0.908,0.151-1.362l0.039-0.34l0.064-0.551      c0.054-0.514,0.132-1.026,0.203-1.538c0.268-2.051,0.635-4.089,1.024-6.121c0.783-4.065,1.882-8.064,3.132-12.01      c0.606-1.979,1.379-3.901,2.057-5.856c0.801-1.906,1.561-3.833,2.423-5.712c3.458-7.515,7.786-14.623,12.87-21.148      c5.1-6.514,11.016-12.377,17.481-17.537c6.453-5.185,13.599-9.479,21.081-13.002c7.485-3.536,15.413-6.101,23.516-7.755      c16.209-3.398,33.182-2.642,49.148,1.709L366.33,160.452z"/>
			</g>
		</g>
		<g>
			<g>
				<path style="fill:#2E4882;" d="M278.363,171.713l-0.517-0.857c2.783-1.678,5.673-3.247,8.591-4.664      c7.286-3.519,15.204-6.234,23.534-8.07c7.72-1.728,16.06-2.534,24.77-2.384c8.123,0.124,16.414,1.277,24.644,3.426l-0.253,0.968      c-8.152-2.129-16.364-3.27-24.407-3.394c-8.637-0.148-16.892,0.649-24.537,2.36c-8.256,1.82-16.099,4.509-23.315,7.994      C283.984,168.496,281.12,170.05,278.363,171.713z"/>
			</g>
			<g>
				<path style="fill:#2E4882;" d="M257.023,188.696l-0.729-0.685c0.911-0.971,1.884-1.9,2.826-2.8      c0.542-0.518,1.084-1.035,1.616-1.562c0.472-0.413,0.919-0.807,1.366-1.201c1.089-0.96,2.215-1.954,3.363-2.89l0.632,0.774      c-1.132,0.924-2.251,1.911-3.333,2.865c-0.448,0.395-0.897,0.791-1.348,1.183c-0.513,0.509-1.059,1.031-1.604,1.553      C258.878,186.825,257.915,187.745,257.023,188.696z"/>
			</g>
		</g>
		<g>
			<g>
				<path style="fill:#2E4882;" d="M226.046,284.097l-0.515-0.695c-4.542-6.131-8.483-12.902-11.716-20.125l0.913-0.408      c3.081,6.884,6.812,13.353,11.096,19.241c2.34-5.258,5.112-10.272,8.244-14.915l0.829,0.56      c-3.255,4.825-6.117,10.056-8.505,15.548L226.046,284.097z"/>
			</g>
		</g>
		<g>
			<path style="fill:#2E4882;" d="M221.628,259.926l-0.998-0.067c0.007-0.102,0.717-10.29,3.597-19.183l0.951,0.308     C222.337,249.756,221.635,259.825,221.628,259.926z"/>
		</g>
		<g>
			<g>
				<g>
					<path style="fill:#FCC659;" d="M152.012,461.886c-24.494,6.365-39.187,31.385-32.819,55.889       c6.365,24.494,31.388,39.196,55.889,32.819c24.494-6.365,39.196-31.388,32.819-55.889       C201.535,470.211,176.515,455.518,152.012,461.886z M199.251,496.957c2.478,9.534,1.094,19.465-3.901,27.963       c-4.986,8.495-12.978,14.544-22.521,17.024c-19.681,5.113-39.862-6.734-44.978-26.424c-2.478-9.534-1.103-19.462,3.892-27.961       c4.813-8.196,12.432-14.116,21.531-16.748c0.332-0.096,0.657-0.18,0.992-0.267c19.363-5.041,39.191,6.348,44.713,25.442       C199.073,496.309,199.167,496.632,199.251,496.957z"/>
				</g>
			</g>
			<g>
				<g>
					<path style="fill:#F49B51;" d="M198.981,495.986c0.093,0.323,0.187,0.645,0.271,0.971c2.478,9.534,1.094,19.466-3.901,27.964       c-4.986,8.496-12.978,14.544-22.521,17.024c-19.682,5.113-39.863-6.734-44.979-26.425c-2.478-9.534-1.103-19.463,3.892-27.961       c4.813-8.196,12.432-14.116,21.532-16.748c0.332-0.096,0.657-0.18,0.992-0.267       C173.629,465.503,193.458,476.892,198.981,495.986z"/>
				</g>
			</g>
			<g>
				<g>
					<g>
						<path style="fill:#2E4882;" d="M195.647,539.661l-0.693-0.721c11.811-11.363,16.586-28.265,12.462-44.109        c-1.443-5.553-3.873-10.699-7.223-15.294l0.808-0.59c3.425,4.697,5.909,9.957,7.383,15.632        C212.599,510.773,207.719,528.048,195.647,539.661z M189.621,469.157c-4.328-3.039-9.104-5.283-14.195-6.67l0.263-0.965        c5.203,1.417,10.084,3.711,14.506,6.816L189.621,469.157z"/>
					</g>
				</g>
			</g>
			<g>
				<g>
					<g>
						<path style="fill:#FCC659;" d="M169.143,533.99l-1.928-6.668c-3.848,1.042-8.153,0.999-10.94,0.017l0.305-4.881        c2.834,0.896,6.63,1.158,10.327,0.089c4.688-1.356,7.073-4.979,5.985-8.741c-1.05-3.631-4.274-5.131-9.732-5.698        c-7.498-0.694-12.535-2.528-14.196-8.271c-1.585-5.479,1.107-10.765,6.895-13.511l-1.929-6.668l4.093-1.184l1.852,6.404        c3.999-1.014,7.011-0.74,9.251-0.172l-0.391,4.834c-1.615-0.391-4.742-1.06-8.967,0.162c-5.083,1.47-6.12,5.061-5.356,7.701        c0.993,3.433,3.932,4.443,10.363,5.158c7.601,0.806,12.027,3.246,13.727,9.121c1.508,5.216-0.71,11.151-7.184,14.24        l1.986,6.866L169.143,533.99z"/>
					</g>
				</g>
			</g>
			<g>
				<g>
					<path style="fill:#FFE6A6;" d="M130.883,480.622c3.387,1.72,5.716,4.361,7.309,7.668l0,0c1.593-3.307,3.932-5.962,7.318-7.682       l0,0c-3.387-1.72-5.726-4.361-7.318-7.668l0,0C136.599,476.246,134.27,478.901,130.883,480.622z"/>
				</g>
				<g>
					<path style="fill:#FFE6A6;" d="M145.862,492.534c1.968,1,3.322,2.534,4.247,4.456l0,0c0.926-1.922,2.285-3.464,4.253-4.464l0,0       c-1.968-1-3.327-2.534-4.253-4.456l0,0C149.183,489.991,147.83,491.534,145.862,492.534z"/>
				</g>
			</g>
			<g>
				<g>
					<g>
						<path style="fill:#2E4882;" d="M198.768,497.083c-0.083-0.321-0.175-0.64-0.268-0.958        c-2.908-10.054-10.037-18.377-19.558-22.837l0.424-0.906c9.783,4.582,17.107,13.136,20.095,23.466        c0.094,0.326,0.189,0.654,0.274,0.983L198.768,497.083z"/>
					</g>
				</g>
				<g>
					<g>
						<path style="fill:#2E4882;" d="M178.942,473.288c-7.657-3.586-16.375-4.386-24.55-2.261l-0.252-0.967        c8.399-2.188,17.358-1.362,25.226,2.321L178.942,473.288z"/>
					</g>
				</g>
				<g>
					<g>
						<path style="fill:#2E4882;" d="M127.367,515.646c-2.514-9.672-1.113-19.737,3.944-28.341l0.862,0.506        c-4.922,8.374-6.286,18.17-3.839,27.583L127.367,515.646z"/>
					</g>
				</g>
				<g>
					<g>
						<path style="fill:#2E4882;" d="M195.782,525.174l-0.862-0.506c2.452-4.172,4.03-8.684,4.689-13.41l0.99,0.139        C199.921,516.253,198.301,520.889,195.782,525.174z"/>
					</g>
				</g>
			</g>
		</g>
		<g>
			<g>
				<path style="fill:#FFE6A6;" d="M179.415,334.218c3.387,1.72,5.717,4.361,7.309,7.668l0,0c1.593-3.307,3.932-5.962,7.318-7.682      l0,0c-3.387-1.72-5.726-4.361-7.318-7.668l0,0C185.131,329.842,182.801,332.497,179.415,334.218z"/>
			</g>
			<g>
				<path style="fill:#FFE6A6;" d="M228.776,376.257c1.968,1,3.322,2.534,4.247,4.456l0,0c0.926-1.922,2.285-3.464,4.253-4.464l0,0      c-1.968-1-3.327-2.534-4.253-4.456l0,0C232.098,373.715,230.744,375.257,228.776,376.257z"/>
			</g>
		</g>
		<g>
			<g>
				<path style="fill:#FFE6A6;" d="M431.7,120.177c3.387,1.72,5.717,4.361,7.309,7.668l0,0c1.593-3.307,3.932-5.962,7.318-7.682l0,0      c-3.387-1.72-5.726-4.361-7.318-7.668l0,0C437.417,115.802,435.087,118.457,431.7,120.177z"/>
			</g>
		</g>
		<g>
			<g>
				<path style="fill:#FFE6A6;" d="M626.095,521.235c3.387,1.72,5.716,4.361,7.309,7.668l0,0c1.593-3.307,3.932-5.962,7.318-7.682      l0,0c-3.387-1.72-5.726-4.361-7.318-7.668l0,0C631.811,516.86,629.482,519.515,626.095,521.235z"/>
			</g>
		</g>
		<g>
			<path style="fill:#FFE6A6;" d="M621.149,544.192c1.968,1,3.322,2.534,4.247,4.456l0,0c0.925-1.922,2.285-3.464,4.253-4.464l0,0     c-1.968-1-3.327-2.534-4.253-4.456l0,0C624.471,541.649,623.117,543.192,621.149,544.192z"/>
		</g>
	</g>
</g>
</svg>