<?xml version="1.0" encoding="utf-8"?>
<svg version="1.1" id="_x3C_Layer_x3E_" xmlns="http://www.w3.org/2000/svg" xmlns:xlink="http://www.w3.org/1999/xlink" x="0px"
	 y="0px" viewBox="0 0 3000 2000" style="enable-background:new 0 0 3000 2000;" xml:space="preserve">
<rect style="fill:#000000;" width="3000" height="2000"/>
<g>
	<defs>
		<path id="SVGID_1_" d="M2479.898,1774.353c-71.386,22.862-158.338,29.055-227.399,24.29c0,0-1269.708,122.314-1728.672-3.088
			c-339.681-92.81-298.674-423.214-194.721-634.694c105.138-213.89-170.849-627.333,272.798-867.076
			c255.179-137.896,484.054,82.774,925.196-80.135c398.277-147.079,912.033-15.523,1037.666,292.944
			c86.425,212.201-22.526,440.946,86.425,551.818C2827.894,1238.233,2746.64,1688.929,2479.898,1774.353z"/>
	</defs>
	<clipPath id="SVGID_00000033361181972309436590000004672641885161990046_">
		<use xlink:href="#SVGID_1_"  style="overflow:visible;"/>
	</clipPath>
	<g style="clip-path:url(#SVGID_00000033361181972309436590000004672641885161990046_);">
		<g>
			<path style="fill:#DAE6FF;" d="M2479.898,1774.353c-71.386,22.862-158.338,29.055-227.399,24.29
				c0,0-1269.708,122.314-1728.672-3.088c-339.681-92.81-298.674-423.214-194.721-634.694
				c105.138-213.89-170.849-627.333,272.798-867.076c255.179-137.896,484.054,82.774,925.196-80.135
				c398.277-147.079,912.033-15.523,1037.666,292.944c86.425,212.201-22.526,440.946,86.425,551.818
				C2827.894,1238.233,2746.64,1688.929,2479.898,1774.353z"/>
		</g>
	</g>
	<g style="clip-path:url(#SVGID_00000033361181972309436590000004672641885161990046_);">
		<path style="fill:#BBCFF8;" d="M854.487,1842.754c0.096,0.002,0.192-0.006,0.291-0.024c0.788-0.146,1.309-0.904,1.161-1.692
			c-38.229-205.87-77.437-352.544-110.399-413.005c-0.732-1.342-1.261-2.311-1.45-2.794c-0.294-0.747-1.138-1.112-1.882-0.821
			c-0.747,0.294-1.114,1.136-0.82,1.882c0.256,0.651,0.763,1.581,1.603,3.122c32.819,60.199,71.918,206.569,110.094,412.146
			C853.214,1842.257,853.811,1842.742,854.487,1842.754z"/>
		<path style="fill:#BBCFF8;" d="M719.403,1414.812c3.942,6.812,25.982,20.928,27.926,19.802c1.945-1.125,0.685-27.267-3.258-34.079
			c-3.942-6.812-12.66-9.138-19.472-5.196C717.787,1399.281,715.46,1408,719.403,1414.812z"/>
		<path style="fill:#BBCFF8;" d="M762.303,1438.889c-3.138,7.415-1.098,34.113,1.019,35.008
			c2.116,0.896,22.697-16.231,25.835-23.647c3.138-7.416-0.331-15.97-7.746-19.108
			C773.996,1428.005,765.441,1431.473,762.303,1438.889z"/>
		<path style="fill:#BBCFF8;" d="M729.542,1481.622c7.931,1.387,33.484-6.612,33.88-8.876c0.396-2.264-20.926-18.459-28.857-19.847
			c-7.932-1.387-15.486,3.919-16.874,11.85C716.305,1472.681,721.61,1480.235,729.542,1481.622z"/>
		<path style="fill:#BBCFF8;" d="M816.368,1578.465c-6.578,11.808-8.003,56.728-4.633,58.605c3.37,1.878,40.813-22.98,47.39-34.787
			c6.577-11.807,2.337-26.711-9.47-33.288C837.849,1562.418,822.945,1566.658,816.368,1578.465z"/>
		<path style="fill:#BBCFF8;" d="M753.966,1643.85c12.985,3.75,57.072-4.977,58.142-8.683c1.071-3.706-31.58-34.59-44.565-38.339
			c-12.985-3.75-26.551,3.738-30.3,16.722C733.494,1626.535,740.98,1640.101,753.966,1643.85z"/>
		<path style="fill:#BBCFF8;" d="M845.87,1632.118c-11.031,12.323-24.833,65.561-21.316,68.711
			c3.518,3.148,54.909-16.439,65.941-28.762c11.032-12.323,9.985-31.255-2.339-42.287
			C875.834,1618.748,856.902,1619.795,845.87,1632.118z"/>
		<path style="fill:#BBCFF8;" d="M757.573,1716.975c16.278,2.929,68.845-13.243,69.68-17.89
			c0.836-4.646-42.796-38.128-59.074-41.057c-16.277-2.929-31.848,7.892-34.777,24.17
			C730.474,1698.475,741.295,1714.046,757.573,1716.975z"/>
		<path style="fill:#BBCFF8;" d="M860.412,1699.476c-11.032,12.324-24.833,65.562-21.317,68.711
			c3.518,3.148,54.91-16.439,65.941-28.762c11.032-12.323,9.984-31.255-2.339-42.286
			C890.375,1686.106,871.443,1687.153,860.412,1699.476z"/>
		<path style="fill:#BBCFF8;" d="M772.113,1784.333c16.278,2.929,68.845-13.244,69.681-17.89
			c0.836-4.646-42.796-38.128-59.074-41.057c-16.278-2.929-31.848,7.893-34.777,24.171
			C745.014,1765.834,755.836,1781.404,772.113,1784.333z"/>
		<path style="fill:#BBCFF8;" d="M898.914,1786.322c-14.894,7.193-47.933,51.161-45.881,55.412
			c2.052,4.251,57.032,5.716,71.925-1.477c14.894-7.192,21.137-25.097,13.946-39.99
			C931.711,1785.373,913.807,1779.13,898.914,1786.322z"/>
		<path style="fill:#BBCFF8;" d="M784.235,1850.711c15.784,4.941,69.961-4.533,71.371-9.038c1.41-4.505-37.694-43.179-53.478-48.12
			c-15.784-4.941-32.585,3.85-37.526,19.633C759.662,1828.97,768.451,1845.77,784.235,1850.711z"/>
		<path style="fill:#BBCFF8;" d="M778.936,1482.325c-3.188,7.534-1.115,34.66,1.035,35.57c2.151,0.91,23.062-16.492,26.249-24.026
			c3.188-7.534-0.336-16.226-7.87-19.414C790.815,1471.267,782.124,1474.791,778.936,1482.325z"/>
		<path style="fill:#BBCFF8;" d="M746.648,1526.353c8.058,1.408,34.02-6.719,34.423-9.019c0.402-2.3-21.261-18.756-29.32-20.165
			c-8.058-1.409-15.734,3.982-17.143,12.04C733.199,1517.269,738.59,1524.944,746.648,1526.353z"/>
		<path style="fill:#BBCFF8;" d="M798.874,1523.153c-5.391,10.296-5.618,48.945-2.679,50.484
			c2.939,1.539,34.575-20.663,39.966-30.96c5.391-10.297,1.415-23.015-8.882-28.406
			C816.983,1508.88,804.266,1512.856,798.874,1523.153z"/>
		<path style="fill:#BBCFF8;" d="M747.77,1585.182c11.449,2.001,48.333-9.545,48.904-12.813
			c0.572-3.268-30.206-26.646-41.654-28.647c-11.449-2.002-22.353,5.656-24.355,17.105
			C728.663,1572.276,736.321,1583.181,747.77,1585.182z"/>
	</g>
	<g style="clip-path:url(#SVGID_00000033361181972309436590000004672641885161990046_);">
		<path style="fill:#BBCFF8;" d="M1141.4,1989.374c-0.171,0.017-0.347,0.018-0.527,0c-1.439-0.144-2.49-1.427-2.345-2.866
			c37.541-376.052,85.818-645.789,135.932-759.525c1.114-2.525,1.917-4.348,2.183-5.245c0.416-1.388,1.878-2.171,3.26-1.762
			c1.387,0.416,2.175,1.874,1.76,3.261c-0.362,1.209-1.133,2.96-2.41,5.858c-49.897,113.243-98.025,382.417-135.515,757.933
			C1143.614,1988.288,1142.614,1989.25,1141.4,1989.374z"/>
		<path style="fill:#BBCFF8;" d="M1319.463,1199.242c-6.057,12.849-43.555,41.578-47.222,39.848
			c-3.669-1.729-5.365-48.935,0.693-61.784c6.056-12.849,21.383-18.354,34.232-12.297
			C1320.015,1171.066,1325.521,1186.394,1319.463,1199.242z"/>
		<path style="fill:#BBCFF8;" d="M1245.958,1249.049c6.767,12.861,7.147,61.185,3.474,63.117
			c-3.67,1.933-43.281-25.75-50.048-38.612c-6.769-12.861-1.827-28.773,11.034-35.539
			C1223.278,1231.248,1239.19,1236.187,1245.958,1249.049z"/>
		<path style="fill:#BBCFF8;" d="M1311.358,1320.938c-14.053,3.698-61.223-6.815-62.278-10.827
			c-1.056-4.012,34.836-36.372,48.89-40.069c14.055-3.697,28.446,4.7,32.144,18.754
			C1333.809,1302.851,1325.413,1317.24,1311.358,1320.938z"/>
		<path style="fill:#BBCFF8;" d="M1169.885,1508.274c13.62,20.239,22.994,100.811,17.218,104.699
			c-5.776,3.888-76.886-35.141-90.505-55.379c-13.619-20.238-8.253-47.684,11.985-61.304
			C1128.819,1482.67,1156.266,1488.037,1169.885,1508.274z"/>
		<path style="fill:#BBCFF8;" d="M1292.028,1616.407c-22.785,8.713-103.399-0.298-105.885-6.8
			c-2.488-6.503,51.553-66.998,74.337-75.71c22.785-8.713,48.319,2.696,57.03,25.48
			C1326.223,1582.162,1314.814,1607.696,1292.028,1616.407z"/>
		<path style="fill:#BBCFF8;" d="M1124.96,1609.241c21.707,20.49,54.601,114.147,48.754,120.344
			c-5.849,6.195-101.247-21.24-122.955-41.731c-21.709-20.49-22.696-54.699-2.205-76.407
			C1069.043,1589.738,1103.252,1588.75,1124.96,1609.241z"/>
		<path style="fill:#BBCFF8;" d="M1296.628,1748.468c-28.831,7.736-125.825-13.38-128.032-21.61
			c-2.208-8.228,71.188-75.062,100.019-82.797c28.831-7.736,58.475,9.365,66.211,38.197
			C1342.562,1711.087,1325.459,1740.732,1296.628,1748.468z"/>
		<path style="fill:#BBCFF8;" d="M1109.021,1732.589c21.709,20.492,54.603,114.147,48.756,120.344
			c-5.849,6.196-101.248-21.241-122.956-41.731c-21.709-20.49-22.695-54.698-2.206-76.406
			C1053.104,1713.086,1087.313,1712.099,1109.021,1732.589z"/>
		<path style="fill:#BBCFF8;" d="M1280.69,1871.816c-28.832,7.736-125.825-13.381-128.032-21.61
			c-2.208-8.228,71.187-75.062,100.02-82.798c28.831-7.735,58.475,9.366,66.21,38.198
			C1326.623,1834.438,1309.521,1864.08,1280.69,1871.816z"/>
		<path style="fill:#BBCFF8;" d="M1052.943,1894.618c27.877,10.677,93.965,84.745,90.918,92.701
			c-3.047,7.958-101.705,18.927-129.581,8.25c-27.877-10.677-41.82-41.932-31.144-69.807
			C993.812,1897.885,1025.066,1883.941,1052.943,1894.618z"/>
		<path style="fill:#BBCFF8;" d="M1268.953,1993.034c-27.639,11.279-126.511,2.454-129.73-5.434
			c-3.219-7.889,61.245-83.372,88.883-94.653c27.639-11.279,59.188,1.983,70.467,29.62
			C1309.852,1950.206,1296.592,1981.754,1268.953,1993.034z"/>
		<path style="fill:#BBCFF8;" d="M1222.63,1329.691c6.875,13.067,7.261,62.166,3.531,64.129
			c-3.73,1.962-43.977-26.164-50.852-39.231c-6.875-13.066-1.856-29.234,11.211-36.109
			C1199.588,1311.605,1215.754,1316.624,1222.63,1329.691z"/>
		<path style="fill:#BBCFF8;" d="M1287.374,1403.981c-14.279,3.755-62.204-6.925-63.276-11.001
			c-1.072-4.076,35.394-36.956,49.674-40.712c14.279-3.756,28.901,4.775,32.657,19.055
			C1310.185,1385.603,1301.654,1400.224,1287.374,1403.981z"/>
		<path style="fill:#BBCFF8;" d="M1192.961,1406.143c11.258,17.7,17.524,87.176,12.473,90.389
			c-5.053,3.213-65.315-31.92-76.573-49.621c-11.257-17.702-6.035-41.177,11.668-52.435
			C1158.228,1383.218,1181.703,1388.442,1192.961,1406.143z"/>
		<path style="fill:#BBCFF8;" d="M1294.276,1509.954c-20.287,5.335-88.373-9.839-89.896-15.629
			c-1.524-5.791,50.285-52.502,70.572-57.838c20.288-5.336,41.06,6.782,46.396,27.07
			C1326.684,1483.845,1314.564,1504.618,1294.276,1509.954z"/>
	</g>
	<g style="clip-path:url(#SVGID_00000033361181972309436590000004672641885161990046_);">
		<path style="fill:#BBCFF8;" d="M2523.222,396.476c-0.085-0.07-0.179-0.133-0.281-0.188c-0.821-0.435-1.839-0.124-2.274,0.697
			c-113.832,214.372-184.071,375.739-197.781,454.377c-0.304,1.746-0.523,3.007-0.7,3.581c-0.272,0.89,0.231,1.829,1.115,2.102
			c0.89,0.272,1.83-0.227,2.102-1.116c0.237-0.775,0.448-1.985,0.798-3.989c13.651-78.297,83.769-239.31,197.437-453.377
			C2524.019,397.844,2523.827,396.974,2523.222,396.476z"/>
		<path style="fill:#BBCFF8;" d="M2337.063,882.213c1.337-9.025-8.476-37.732-11.052-38.113
			c-2.577-0.382-20.292,24.246-21.629,33.271c-1.338,9.025,4.895,17.424,13.919,18.762
			C2327.325,897.47,2335.726,891.238,2337.063,882.213z"/>
		<path style="fill:#BBCFF8;" d="M2315.508,829.418c8.196-4.465,25.605-30.16,24.33-32.5c-1.273-2.34-32.303-1.647-40.5,2.818
			c-8.197,4.464-11.221,14.729-6.756,22.925C2297.047,830.858,2307.311,833.883,2315.508,829.418z"/>
		<path style="fill:#BBCFF8;" d="M2376.062,814.279c-6.195-6.98-35.151-18.157-37.144-16.388
			c-1.993,1.769,5.67,31.845,11.865,38.826c6.197,6.981,16.879,7.616,23.859,1.421
			C2381.623,831.941,2382.258,821.26,2376.062,814.279z"/>
		<path style="fill:#BBCFF8;" d="M2367.146,663.772c14.486-5.968,48.186-45.698,46.483-49.832
			c-1.703-4.135-53.609-8.593-68.095-2.625c-14.485,5.968-21.39,22.549-15.422,37.035
			C2336.08,662.836,2352.661,669.74,2367.146,663.772z"/>
		<path style="fill:#BBCFF8;" d="M2470.936,649.464c-9.076-12.77-55.374-36.657-59.018-34.067c-3.645,2.59,3.7,54.167,12.776,66.937
			c9.077,12.77,26.787,15.763,39.556,6.687C2477.02,679.944,2480.013,662.234,2470.936,649.464z"/>
		<path style="fill:#BBCFF8;" d="M2379.084,593.808c18.899-3.223,69.828-41.571,68.909-46.966
			c-0.92-5.394-61.68-24.697-80.58-21.474c-18.9,3.223-31.608,21.156-28.385,40.055
			C2342.251,584.322,2360.185,597.031,2379.084,593.808z"/>
		<path style="fill:#BBCFF8;" d="M2520.416,580.514c-12.656-14.4-72.019-37.65-76.129-34.036
			c-4.11,3.612,11.324,65.469,23.98,79.869c12.656,14.401,34.59,15.815,48.991,3.159
			C2531.658,616.85,2533.073,594.915,2520.416,580.514z"/>
		<path style="fill:#BBCFF8;" d="M2414.483,522.202c18.9-3.223,69.829-41.571,68.911-46.965
			c-0.921-5.395-61.682-24.697-80.58-21.474c-18.9,3.222-31.607,21.156-28.385,40.055
			C2377.651,512.716,2395.585,525.424,2414.483,522.202z"/>
		<path style="fill:#BBCFF8;" d="M2555.817,508.908c-12.656-14.401-72.02-37.649-76.13-34.037
			c-4.11,3.612,11.324,65.469,23.98,79.87c12.656,14.401,34.59,15.814,48.991,3.158
			C2567.059,545.242,2568.473,523.309,2555.817,508.908z"/>
		<path style="fill:#BBCFF8;" d="M2442.202,415.628c18.703,4.219,80.4-11.84,81.604-17.178c1.205-5.338-47.624-46.33-66.325-50.549
			c-18.702-4.219-37.284,7.522-41.502,26.224C2411.759,392.827,2423.499,411.409,2442.202,415.628z"/>
		<path style="fill:#BBCFF8;" d="M2592.704,439.936c-10.757-15.87-66.748-46.358-71.277-43.288
			c-4.53,3.07,3.051,66.371,13.807,82.241c10.757,15.87,32.343,20.014,48.212,9.258
			C2599.316,477.391,2603.461,455.806,2592.704,439.936z"/>
		<path style="fill:#BBCFF8;" d="M2331.753,778.008c8.327-4.536,26.016-30.643,24.721-33.02c-1.295-2.377-32.823-1.674-41.15,2.863
			c-8.328,4.536-11.401,14.965-6.865,23.292C2312.996,779.471,2323.424,782.544,2331.753,778.008z"/>
		<path style="fill:#BBCFF8;" d="M2392.811,761.352c-6.295-7.091-35.714-18.447-37.739-16.65
			c-2.024,1.797,5.76,32.356,12.056,39.448c6.295,7.092,17.148,7.738,24.24,1.443
			C2398.46,779.297,2399.106,768.445,2392.811,761.352z"/>
		<path style="fill:#BBCFF8;" d="M2343.115,726.579c12.32-5.453,40.407-40.357,38.851-43.873
			c-1.556-3.516-46.277-6.194-58.597-0.742c-12.32,5.454-17.887,19.861-12.433,32.181
			C2316.387,726.466,2330.795,732.032,2343.115,726.579z"/>
		<path style="fill:#BBCFF8;" d="M2434.233,707.165c-8.944-10.075-50.74-26.207-53.615-23.655
			c-2.877,2.552,8.184,45.968,17.128,56.043c8.944,10.076,24.362,10.995,34.438,2.051
			C2442.259,732.66,2443.177,717.241,2434.233,707.165z"/>
	</g>
	<g style="clip-path:url(#SVGID_00000033361181972309436590000004672641885161990046_);">
		<path style="fill:#BBCFF8;" d="M2478.425,88.709c-0.061-0.114-0.134-0.223-0.221-0.326c-0.692-0.832-1.928-0.946-2.76-0.253
			c-217.382,180.866-364.361,323.832-413.864,402.562c-1.099,1.749-1.892,3.011-2.336,3.551c-0.686,0.84-0.559,2.075,0.274,2.759
			c0.839,0.686,2.073,0.563,2.759-0.275c0.598-0.731,1.36-1.943,2.621-3.949c49.289-78.389,195.98-221.027,413.052-401.636
			C2478.68,90.537,2478.857,89.513,2478.425,88.709z"/>
		<path style="fill:#BBCFF8;" d="M2063.244,530.215c5.427-9.14,7.522-44.424,4.912-45.972c-2.609-1.55-32.583,17.181-38.01,26.322
			c-5.427,9.139-2.416,20.947,6.723,26.374C2046.009,542.365,2057.818,539.355,2063.244,530.215z"/>
		<path style="fill:#BBCFF8;" d="M2063.315,463.776c10.808-1.195,40.924-21.211,40.582-24.297
			c-0.34-3.085-34.101-16.039-44.91-14.844c-10.809,1.194-18.602,10.926-17.406,21.734
			C2042.776,457.177,2052.506,464.971,2063.315,463.776z"/>
		<path style="fill:#BBCFF8;" d="M2135.287,474.191c-3.598-10.261-29.882-35.096-32.811-34.069
			c-2.929,1.027-7.948,36.837-4.351,47.099c3.599,10.262,14.835,15.664,25.096,12.067
			C2133.483,495.689,2138.885,484.453,2135.287,474.191z"/>
		<path style="fill:#BBCFF8;" d="M2192.128,307.984c18.254-0.038,72.129-27.993,72.118-33.203
			c-0.01-5.21-54.005-32.935-72.258-32.896c-18.253,0.039-33.018,14.867-32.979,33.121
			C2159.047,293.257,2173.876,308.023,2192.128,307.984z"/>
		<path style="fill:#BBCFF8;" d="M2310.348,338.384c-4.147-17.775-43.516-63.972-48.589-62.788
			c-5.074,1.183-19.927,60.035-15.78,77.81c4.147,17.776,21.92,28.823,39.695,24.674
			C2303.449,373.933,2314.496,356.16,2310.348,338.384z"/>
		<path style="fill:#BBCFF8;" d="M2235.891,237.823c21.799,4.87,93.642-13.989,95.033-20.211
			c1.389-6.222-55.597-53.861-77.396-58.732c-21.8-4.87-43.419,8.854-48.289,30.653
			C2200.368,211.332,2214.092,232.952,2235.891,237.823z"/>
		<path style="fill:#BBCFF8;" d="M2394.139,285.893c-7.287-21.114-61.024-72.392-67.051-70.311c-6.026,2.08-16.698,75.586-9.41,96.7
			c7.287,21.114,30.311,32.324,51.426,25.037C2390.217,330.032,2401.427,307.007,2394.139,285.893z"/>
		<path style="fill:#BBCFF8;" d="M2305.675,176.249c21.801,4.87,93.642-13.988,95.033-20.21
			c1.389-6.223-55.598-53.862-77.396-58.732c-21.799-4.871-43.418,8.854-48.289,30.653
			C2270.151,149.76,2283.876,171.38,2305.675,176.249z"/>
		<path style="fill:#BBCFF8;" d="M2463.924,224.321c-7.287-21.115-61.025-72.391-67.051-70.311
			c-6.026,2.08-16.698,75.586-9.411,96.701c7.287,21.114,30.311,32.323,51.426,25.036
			C2460.002,268.459,2471.211,245.435,2463.924,224.321z"/>
		<path style="fill:#BBCFF8;" d="M2382.616,73.584c18.302,12.807,91.912,22.735,95.567,17.511
			c3.656-5.223-30.889-70.979-49.19-83.785c-18.302-12.806-43.519-8.352-56.325,9.948
			C2359.861,35.56,2364.314,60.778,2382.616,73.584z"/>
		<path style="fill:#BBCFF8;" d="M2534.148,166.246c-4.591-21.86-51.496-79.452-57.735-78.142
			c-6.239,1.31-26.016,72.905-21.426,94.765c4.591,21.86,26.033,35.859,47.892,31.27
			C2524.74,209.547,2538.739,188.106,2534.148,166.246z"/>
		<path style="fill:#BBCFF8;" d="M2103.529,415.52c10.981-1.214,41.579-21.551,41.233-24.686
			c-0.347-3.134-34.649-16.297-45.63-15.082c-10.981,1.214-18.9,11.1-17.685,22.082
			C2082.661,408.816,2092.547,416.734,2103.529,415.52z"/>
		<path style="fill:#BBCFF8;" d="M2176.714,424.522c-3.656-10.425-30.361-35.658-33.337-34.615
			c-2.976,1.044-8.076,37.428-4.42,47.854c3.656,10.426,15.072,15.915,25.498,12.259
			C2174.881,446.365,2180.369,434.949,2176.714,424.522z"/>
		<path style="fill:#BBCFF8;" d="M2138.488,365.089c15.69-0.439,61.385-25.67,61.259-30.148
			c-0.125-4.479-47.159-27.112-62.85-26.673c-15.691,0.44-28.055,13.515-27.615,29.207
			C2109.721,353.165,2122.797,365.528,2138.488,365.089z"/>
		<path style="fill:#BBCFF8;" d="M2245.299,384.39c-5.194-14.812-43.134-50.659-47.362-49.177
			c-4.229,1.482-11.473,53.174-6.279,67.986c5.194,14.813,21.411,22.611,36.224,17.417S2250.493,399.203,2245.299,384.39z"/>
	</g>
	<g style="clip-path:url(#SVGID_00000033361181972309436590000004672641885161990046_);">
		<polygon style="fill:#0B0755;" points="1694.326,901.33 1694.326,805.184 2116.37,901.33 		"/>
		<g>
			<g>
				<g>
					<g>
						<path style="fill:#FD9E87;" d="M515.098,1260.15c47.925-15.655,94.814-31.262,137.618-46.01
							c19.238-6.637,37.635-13.083,54.937-19.281c65.55-23.44,115.355-43.259,134.448-55.317
							c52.49-33.112,145.08-127.039,198.032-196.354c0,0,0,0,0.008-0.011c0,0,0.017-0.023,0.053-0.049l0.083-0.114
							c5.972-7.828,11.447-15.336,16.281-22.403c5.452-7.98,10.114-15.384,13.824-22.065l0.016-0.023
							c1.491-2.677,2.799-5.226,3.985-7.655l0.007-0.01c3.631-7.53,5.702-13.818,5.859-18.526c0.159-4.497-1.392-7.547-4.936-8.885
							c-5.5-2.09-13.487-0.723-23.105,2.991l-0.028,0.014c-1.5,0.585-3.024,1.204-4.606,1.901c-4.438,1.936-9.146,4.288-14.097,6.97
							c-9.936,5.34-20.758,12.03-31.935,19.301c-55.689,36.204-119.847,86.891-123.356,61.335
							c-3.473-25.653,28.533-71.779,62.565-104.697c2.834-2.763,5.675-5.415,8.515-7.946l0.008-0.011
							c16.168-14.503,32.156-25.365,44.418-29.07c17.478-5.313,54.58-3.28,87.499,5.246c2.726,0.684,5.398,1.417,8.029,2.207
							c4.453,1.32,8.767,2.732,12.975,4.17l0.011,0.008c32.661,11.195,57.16,23.998,64.326,7.538l0.008-0.011
							c3.763-8.642-0.896-14.868-9.429-21.552l-0.103-0.075l-0.278-0.219c-1.722-1.335-3.609-2.685-5.627-4.094l-0.365-0.268
							c-3.399-2.371-7.116-4.837-10.982-7.603c0,0,0,0-0.011-0.008c0,0,0,0-0.011-0.008c-3.265-2.292-6.638-4.748-10.038-7.454
							c-42.07-33.66-118.752-60.387-118.752-60.387s42.819-28.42,91.976-44.75c38.641-12.853,85.021-13.396,86.78-26.193
							c0,0,0.008-0.011-0.003-0.02c0.056-0.555,0.059-1.133-0.036-1.745c-1.456-8.893-10.781-14.402-26.965-16.805
							c-0.019,0.003-0.051-0.001-0.082-0.008l-0.134-0.01c-26.805-3.969-72.242,0.549-131.57,12.307
							c-95.453,18.935-109.979,33.327-109.19,28.643c0.421-2.463,44.098-37.549,94.342-66.24
							c42.576-24.335,95.129-44.767,89.501-59.809c0.008-0.011-0.003-0.02-0.003-0.02c-0.315-0.862-0.841-1.722-1.566-2.552
							c-4.383-5.024-19.371-3.127-39.714,2.697l-0.02,0.003c-0.008,0.011-0.008,0.011-0.008,0.011
							c-61.171,17.496-170.916,70.275-187.596,76.175c1.248-1.102,57.952-50.453,56.825-72.226l-0.011-0.008
							c-0.06-1.306-0.349-2.537-0.862-3.631c-2.655-5.563-14.97-2.479-32.067,5.783c-0.008,0.011-0.008,0.011-0.008,0.011
							c-42.608,20.625-114.745,73.459-139.648,104.623c-10.491,13.125-20.565,27.977-30.125,43.874
							c-13.55,22.458-26.092,47.008-37.533,71.875c0,0,0,0-0.02,0.003c-40.07,87.118-66.536,177.764-73.625,193.929
							c-1.348,3.08-23.265,7.822-58.303,13.566c-27.332,4.469-62.617,9.523-102.353,14.854
							c2.855,78.898,19.1,151.026,40.285,212.238c2.844,8.245,5.788,16.282,8.801,24.107
							C510.336,1248.446,512.692,1254.367,515.098,1260.15z"/>
					</g>
					<g>
						<path style="fill:#CF564B;" d="M1069.128,573.291l-5.168-13.686c-0.604-1.598,0.644-3.55,2.787-4.359l19.055-5.653
							c8.503-1.953,17.23-3.535,19.069,1.338l0.488,1.289c1.952,5.171-2.083,11.484-9.014,14.101l-22.244,8.399
							C1071.958,575.529,1069.731,574.889,1069.128,573.291z"/>
					</g>
					<g>
						<path style="fill:#CF564B;" d="M1146.267,660.765l0.827-15.987c0.097-1.867,2.204-3.276,4.707-3.146l26.83,1.39
							c7.629,0.395,13.576,5.329,13.281,11.021l-0.079,1.507c-0.312,6.04-7.129,10.597-15.225,10.177l-25.984-1.346
							C1148.121,664.25,1146.17,662.632,1146.267,660.765z"/>
					</g>
					<g>
						<path style="fill:#CF564B;" d="M1125.56,812.811l9.447-12.925c1.103-1.51,5.661-0.055,5.661-0.055l21.69,15.852
							c6.168,4.508,8.442,11.893,5.078,16.495l-0.889,1.217c-3.569,4.883-11.768,4.964-18.313,0.18l-21.007-15.353
							C1125.204,816.742,1124.458,814.319,1125.56,812.811z"/>
					</g>
					<g>
						<path style="fill:#CF564B;" d="M905.516,575.047l-5.161-9.718c-0.602-1.136,0.336-2.813,2.096-3.747l18.867-10.021
							c5.366-2.85,11.205-2.355,13.042,1.104l0.486,0.917c1.95,3.67-1.085,9.098-6.778,12.122l-18.273,9.704
							C908.034,576.343,906.119,576.181,905.516,575.047z"/>
					</g>
					<g>
						<polygon style="fill:#BBCFF8;" points="1671.392,638.174 1001.758,842.849 1080.931,1101.876 1750.566,897.201 
							1671.392,638.174 						"/>
						<path style="fill:#75A5ED;" d="M1013.77,849.233l73.55,240.63l651.231-199.046L1665,650.188L1013.77,849.233L1013.77,849.233z
							 M1074.54,1113.889l-84.793-277.427l688.036-210.301l84.795,277.429L1074.54,1113.889L1074.54,1113.889z"/>
						<path style="fill:#6192E6;" d="M1487.594,840.942c13.645,59.867-23.827,119.467-83.696,133.1
							c-59.869,13.656-119.464-23.817-133.111-83.683c-13.646-59.869,23.827-119.467,83.697-133.121
							C1414.351,743.603,1473.947,781.075,1487.594,840.942L1487.594,840.942z"/>
						<path style="fill:#BBCFF8;" d="M1392.611,973.882l-4.605-24.884c-14.332,2.397-29.938,0.69-39.699-3.873l2.859-17.597
							c9.961,4.27,23.639,6.585,37.434,4.033c17.49-3.238,27.446-15.523,24.846-29.572c-2.501-13.537-13.658-20.135-33.263-24.165
							c-26.947-5.202-44.558-13.653-48.528-35.094c-3.777-20.438,7.88-38.659,29.86-46.541l-4.602-24.884l15.277-2.817l4.422,23.895
							c14.869-2.242,25.7-0.169,33.611,2.685l-3.144,17.411c-5.724-2.008-16.83-5.565-32.591-2.64
							c-18.97,3.507-24.015,16.166-22.193,26.014c2.369,12.813,12.67,17.529,35.741,22.43c27.293,5.664,42.47,16.098,46.524,38.019
							c3.601,19.465-6.575,40.2-31.176,49.076l4.743,25.624L1392.611,973.882L1392.611,973.882z"/>
						<path style="fill:#6192E6;" d="M1562.407,813.717c-4.104-13.428-18.318-20.985-31.756-16.891
							c-13.427,4.112-20.989,18.328-16.883,31.757c4.103,13.428,18.329,21.003,31.755,16.892
							C1558.951,841.362,1566.512,827.146,1562.407,813.717L1562.407,813.717z"/>
						<path style="fill:#6192E6;" d="M1238.908,912.604c-4.105-13.43-18.319-20.986-31.758-16.892
							c-13.426,4.11-20.989,18.328-16.882,31.756c4.102,13.429,18.317,20.989,31.754,16.894
							C1235.449,940.249,1243.01,926.033,1238.908,912.604L1238.908,912.604z"/>
					</g>
					<g>
						<g>
							<path style="fill:#FD9E87;" d="M1001.539,894.619c0,0,65.986-46.661,77.5-29.442
								c11.514,17.219-57.622,101.554-57.622,101.554L1001.539,894.619z"/>
						</g>
						<g>
							<path style="fill:#CF564B;" d="M1049.461,909.266l-16.497-19.41c-1.927-2.267-1.74-5.591,0.416-7.424l23.121-19.65
								c6.574-5.587,16.665-4.515,22.538,2.395l1.555,1.829c6.233,7.333,5.629,18.085-1.348,24.015l-22.392,19.031
								C1054.698,911.886,1051.387,911.533,1049.461,909.266z"/>
						</g>
					</g>
				</g>
				<path style="fill:#E85F58;" d="M152.677,1056.337l408.603-75.508l91.435,233.312l13.356,32.555l-514.449,268.98
					C151.622,1383.737,152.677,1181.361,152.677,1056.337z"/>
			</g>
			
				<ellipse transform="matrix(0.7071 -0.7071 0.7071 0.7071 -707.7811 749.5045)" style="fill:#140775;" cx="550.841" cy="1229.12" rx="23.877" ry="23.877"/>
			
				<ellipse transform="matrix(0.925 -0.3799 0.3799 0.925 -450.6786 260.6623)" style="fill:#140775;" cx="435.05" cy="1272.129" rx="23.877" ry="23.877"/>
			<circle style="fill:#140775;" cx="318.482" cy="1319.882" r="23.877"/>
		</g>
		<g>
			
				<rect x="1601.917" y="901.157" transform="matrix(-1 -1.224647e-16 1.224647e-16 -1 3718.2788 2186.8982)" style="fill:#4851EC;" width="514.445" height="384.585"/>
			<g>
				<path style="fill:#0B0755;" d="M1630.636,928.628h454.509v327.146h-454.509V928.628z M2082.648,931.125h-449.515v322.152
					h449.515V931.125z"/>
			</g>
			<g>
				
					<rect x="1592.411" y="1065.442" transform="matrix(-1 -1.224647e-16 1.224647e-16 -1 3410.8037 2199.908)" style="fill:#4851EC;" width="225.982" height="69.025"/>
				<path style="fill:#0B0755;" d="M1591.162,1064.193h228.479v71.522h-228.479V1064.193z M1817.144,1066.69H1593.66v66.528h223.484
					V1066.69z"/>
			</g>
			<path style="fill:#FA7267;" d="M1787.55,1100.941c0-6.896-5.59-12.486-12.487-12.486c-6.896,0-12.486,5.59-12.486,12.486
				c0,6.896,5.59,12.487,12.486,12.487C1781.96,1113.428,1787.55,1107.838,1787.55,1100.941z"/>
		</g>
	</g>
	<g style="clip-path:url(#SVGID_00000033361181972309436590000004672641885161990046_);">
		<path style="fill:#F9A58F;" d="M2593.082,1588.13c-91.615-82.048-267.794-241.845-305.618-290.759
			c-43.452-56.214-119.307-147.951-170.775-163.917c-48.55-15.066-128.199-4.79-225.741-0.343
			c-115.923,5.293-190.37,19.328-208.225,28.196c-24.639,12.239-15.515,43.867,17.508,61.532c31.05,16.615,179.435-9.549,199,31.373
			c6.383,13.346-165.647,31.774-192.859,27.462c-27.222-4.307-169.358-139.279-221.677-169.564
			c-52.328-30.28-86.786-5.212-86.363,1.47c1.006,16.004,207.541,266.981,272.753,321.638c65.217,54.642,382.413-10.9,426.463-8.518
			c32.425,1.752,264.847,269.276,328.919,344.214c81.427-0.067,55.947-141.114,133.319-169.62l0.01-0.005
			C2570.975,1597.17,2582.08,1592.784,2593.082,1588.13z"/>
	</g>
	<g style="clip-path:url(#SVGID_00000033361181972309436590000004672641885161990046_);">
		<g>
			<polygon style="fill:#FFFFFF;" points="2393.365,1344.668 2308.121,1276.243 2128.971,1477.615 2186.816,1561.565 			"/>
		</g>
		<path style="fill:#160A72;" d="M2165.241,1541.796l213.202-236.396c0,0,206.215,131.082,398.678,256.28
			c0.742,2.156,483.576,316.157,484.315,318.309c59.445,173.033-212.876,251.542-344.75,506.338
			C2661.98,2126.095,2165.241,1541.796,2165.241,1541.796z"/>
		<g>
			<path style="fill:#100259;" d="M2169.281,1473.289c5.479,2.595,7.816,9.141,5.221,14.619c-2.596,5.479-9.141,7.816-14.62,5.221
				c-5.479-2.595-7.816-9.141-5.22-14.62C2157.257,1473.03,2163.802,1470.693,2169.281,1473.289z"/>
		</g>
	</g>
</g>
</svg>
